<?xml version="1.0" encoding="UTF-8" standalone="no"?>
<!DOCTYPE svg PUBLIC "-//W3C//DTD SVG 1.1//EN" "http://www.w3.org/Graphics/SVG/1.1/DTD/svg11.dtd">
<svg xmlns="http://www.w3.org/2000/svg" version="1.1" viewBox="0.00 0.00 640.00 640.00" width="640.00" height="640.00">
<g stroke-width="2.00" fill="none" stroke-linecap="butt">
<path stroke="#0f100f" vector-effect="non-scaling-stroke" d="
  M 640.00 3.57
  C 572.51 3.98 505.01 4.03 437.50 3.70
  C 422.65 3.63 407.37 4.61 393.01 4.23
  C 380.97 3.90 369.02 3.49 356.91 3.58
  C 251.97 4.43 168.03 3.57 42.00 3.98
  C 31.84 4.01 17.84 3.81 0.00 3.38"
/>
<path stroke="#8f8f8e" vector-effect="non-scaling-stroke" d="
  M 349.03 40.57
  C 348.08 41.06 347.28 41.78 346.65 42.71"
/>
<path stroke="#0f6170" vector-effect="non-scaling-stroke" d="
  M 346.65 42.71
  C 335.79 40.06 326.41 39.01 318.50 39.57
  C 312.12 40.02 305.73 40.28 299.34 40.34
  C 298.62 40.35 297.71 40.50 296.61 40.81
  C 294.54 41.37 291.22 41.10 289.71 41.31
  C 281.12 42.50 272.61 44.15 264.19 46.27
  C 260.82 47.12 257.34 48.36 253.76 50.00
  C 249.75 51.85 244.90 52.62 241.20 54.33
  C 236.15 56.67 231.26 59.28 226.52 62.16"
/>
<path stroke="#8f3f18" vector-effect="non-scaling-stroke" d="
  M 226.52 62.16
  C 183.33 87.19 152.06 127.11 140.36 175.64
  C 127.99 226.94 139.29 281.50 171.01 323.81"
/>
<path stroke="#433e57" vector-effect="non-scaling-stroke" d="
  M 171.01 323.81
  C 189.90 348.77 213.69 367.67 242.36 380.52
  C 246.21 382.25 249.84 383.08 253.25 383.03
  C 289.68 382.45 320.90 382.39 346.93 382.84
  C 358.24 383.04 367.61 383.01 375.04 382.75
  C 380.92 382.55 387.18 379.26 392.34 376.61
  C 404.01 370.61 414.96 363.52 425.21 355.35
  C 425.88 354.82 426.70 354.04 427.69 353.02
  C 428.41 352.28 429.23 351.50 430.15 350.68"
/>
<path stroke="#8f8f8e" vector-effect="non-scaling-stroke" d="
  M 430.15 350.68
  C 437.98 344.71 445.29 337.25 452.06 328.31"
/>
<path stroke="#8a870f" vector-effect="non-scaling-stroke" d="
  M 452.06 328.31
  C 456.53 322.92 460.70 317.07 464.56 310.78"
/>
<path stroke="#8f8f8e" vector-effect="non-scaling-stroke" d="
  M 464.56 310.78
  C 470.75 300.89 475.95 290.37 480.18 279.21"
/>
<path stroke="#8a870f" vector-effect="non-scaling-stroke" d="
  M 480.18 279.21
  C 493.68 242.29 494.95 204.70 483.98 166.45"
/>
<path stroke="#387351" vector-effect="non-scaling-stroke" d="
  M 483.98 166.45
  C 471.28 125.80 447.30 93.55 412.04 69.69
  C 401.89 62.82 391.00 57.05 379.35 52.38"
/>
<path stroke="#8a870f" vector-effect="non-scaling-stroke" d="
  M 379.35 52.38
  C 389.34 38.76 398.50 27.16 406.81 17.57
  C 409.02 15.02 409.42 12.70 408.01 10.62
  C 403.14 3.46 382.46 12.25 377.11 15.93
  C 366.80 23.02 357.44 31.23 349.03 40.57"
/>
<path stroke="#a4db43" vector-effect="non-scaling-stroke" d="
  M 379.35 52.38
  L 378.01 53.44"
/>
<path stroke="#fbf77f" vector-effect="non-scaling-stroke" d="
  M 378.01 53.44
  C 377.65 51.44 376.09 50.16 373.32 49.61
  C 370.61 49.07 365.61 47.83 358.32 45.90
  C 358.02 45.82 357.79 45.61 357.63 45.28
  C 357.49 44.99 357.26 44.83 356.93 44.81
  C 353.94 44.65 351.28 43.66 348.95 41.83
  C 348.69 41.62 348.63 41.37 348.78 41.08
  L 349.03 40.57"
/>
<path stroke="#a4db43" vector-effect="non-scaling-stroke" d="
  M 483.98 166.45
  C 483.07 166.57 482.32 167.28 482.00 168.19
  C 479.84 174.20 477.94 180.56 475.04 185.94
  C 455.70 221.84 416.13 243.18 381.21 261.02"
/>
<path stroke="#a9e3c2" vector-effect="non-scaling-stroke" d="
  M 378.01 53.44
  C 364.34 72.36 352.58 92.38 342.73 113.49
  C 332.30 135.87 324.93 159.19 326.56 183.72
  C 328.54 213.57 356.16 245.63 381.21 261.02"
/>
<path stroke="#fbf77f" vector-effect="non-scaling-stroke" d="
  M 381.21 261.02
  C 383.10 262.46 384.92 263.65 386.67 264.58
  C 403.19 273.42 420.82 278.46 439.56 279.69
  C 445.04 280.05 456.86 280.90 465.28 279.18
  C 469.37 278.34 473.52 277.99 477.73 278.13
  C 478.05 278.14 478.32 278.25 478.55 278.48
  C 478.92 278.85 479.47 279.10 480.18 279.21"
/>
<path stroke="#fbf77f" vector-effect="non-scaling-stroke" d="
  M 464.56 310.78
  C 456.63 309.16 450.26 311.06 442.83 310.97
  C 424.84 310.75 407.18 308.32 389.87 303.69
  C 379.53 300.93 368.08 295.90 357.24 291.91
  C 354.20 290.79 351.82 290.32 350.09 290.51
  C 344.30 291.14 341.77 296.49 343.49 301.88
  C 347.71 315.08 370.14 323.78 383.04 325.61
  C 405.04 328.72 423.39 330.70 444.14 328.56
  C 446.32 328.34 449.29 326.63 452.06 328.31"
/>
<path stroke="#b3aec7" vector-effect="non-scaling-stroke" d="
  M 430.15 350.68
  C 368.86 347.47 310.96 340.57 262.46 298.98"
/>
<path stroke="#ffaf89" vector-effect="non-scaling-stroke" d="
  M 262.46 298.98
  C 224.27 264.37 197.84 216.09 201.45 163.52
  C 202.03 155.09 203.08 147.01 204.60 139.26
  C 205.05 136.97 205.29 135.25 205.32 134.09
  C 205.33 133.79 205.50 133.51 205.83 133.26
  C 206.06 133.09 206.21 132.83 206.25 132.55
  C 206.38 131.62 206.34 130.69 206.13 129.77
  C 206.12 129.73 206.14 129.69 206.18 129.67
  C 206.22 129.66 206.27 129.67 206.29 129.71
  C 206.37 129.87 206.43 130.04 206.48 130.22
  C 206.54 130.43 206.62 130.44 206.71 130.24
  C 208.82 125.60 209.83 120.81 211.64 115.99"
/>
<path stroke="#d1f9f7" vector-effect="non-scaling-stroke" d="
  M 223.69 126.51
  C 223.06 135.30 222.71 144.17 222.66 153.12
  C 222.63 157.60 221.54 160.77 224.24 165.04
  C 224.41 165.32 224.52 165.62 224.57 165.95
  C 225.02 169.19 228.49 174.41 230.06 177.44
  C 231.32 179.87 232.82 181.23 234.57 181.53"
/>
<path stroke="#d1f9f7" vector-effect="non-scaling-stroke" d="
  M 286.99 135.72
  C 288.41 135.78 288.98 135.07 288.71 133.58
  C 288.64 133.22 288.70 132.88 288.89 132.57
  L 290.43 129.94
  C 290.58 129.68 290.67 129.40 290.70 129.10
  C 290.84 127.50 292.50 126.11 292.51 125.08
  C 292.52 124.75 292.62 124.46 292.81 124.20
  C 295.05 121.21 296.41 117.19 297.82 114.66
  C 299.08 112.39 301.52 109.13 301.76 106.61
  C 301.79 106.30 301.91 106.03 302.14 105.80
  C 304.63 103.28 305.56 99.79 307.04 97.45
  C 308.82 94.63 310.66 91.85 312.55 89.10
  C 312.88 88.63 313.67 87.14 314.94 84.65
  C 317.04 80.51 320.84 79.49 322.62 74.87
  C 323.16 73.48 324.88 72.38 325.66 71.23
  C 327.13 69.06 329.18 66.43 331.81 63.32
  C 335.32 59.18 339.34 53.41 343.86 46.02"
/>
<path stroke="#b35e52" vector-effect="non-scaling-stroke" d="
  M 262.46 298.98
  L 260.95 301.75
  C 260.80 302.04 260.56 302.23 260.24 302.32
  C 235.13 309.37 211.65 315.13 189.82 319.60
  C 181.20 321.37 174.93 322.77 171.01 323.81"
/>
<path stroke="#80d1e0" vector-effect="non-scaling-stroke" d="
  M 346.65 42.71
  L 343.86 46.02"
/>
<path stroke="#52cad9" vector-effect="non-scaling-stroke" d="
  M 343.86 46.02
  C 342.69 46.85 341.66 47.76 340.75 48.75
  C 317.68 74.13 297.24 102.61 286.99 135.72"
/>
<path stroke="#80d1e0" vector-effect="non-scaling-stroke" d="
  M 286.99 135.72
  C 284.16 147.32 280.82 158.75 276.97 170.01
  C 273.45 180.30 267.77 190.28 256.92 192.23
  C 247.86 193.86 239.70 188.83 234.57 181.53"
/>
<path stroke="#52cad9" vector-effect="non-scaling-stroke" d="
  M 234.57 181.53
  C 225.83 170.03 223.47 155.14 223.47 141.11
  C 223.47 136.24 223.54 131.37 223.69 126.51"
/>
<path stroke="#80d1e0" vector-effect="non-scaling-stroke" d="
  M 223.69 126.51
  C 224.52 121.83 228.41 106.92 220.96 107.46
  C 216.00 107.82 213.30 111.60 211.64 115.99"
/>
<path stroke="#80816b" vector-effect="non-scaling-stroke" d="
  M 211.64 115.99
  C 209.49 111.53 212.46 109.03 213.65 105.57
  C 215.26 100.91 216.81 96.22 218.28 91.50
  C 218.85 89.69 219.12 88.35 219.10 87.49
  C 219.09 87.16 219.16 86.84 219.29 86.53
  C 220.76 83.21 223.09 79.82 223.44 76.11
  C 223.74 72.94 224.71 69.98 226.34 67.25
  C 226.51 66.98 226.61 66.68 226.64 66.36
  L 227.00 62.68
  C 227.02 62.50 226.95 62.36 226.80 62.26
  C 226.72 62.20 226.63 62.17 226.52 62.16"
/>
<path stroke="#433e57" vector-effect="non-scaling-stroke" d="
  M 377.13 401.75
  C 377.13 400.24 375.91 399.02 374.40 399.02
  L 252.26 399.02
  C 250.75 399.02 249.53 400.24 249.53 401.75
  L 249.53 416.01
  C 249.53 417.52 250.75 418.74 252.26 418.74
  L 374.40 418.74
  C 375.91 418.74 377.13 417.52 377.13 416.01
  L 377.13 401.75"
/>
<path stroke="#433e57" vector-effect="non-scaling-stroke" d="
  M 374.91 431.44
  L 251.77 431.44
  C 250.43 431.44 249.34 432.53 249.34 433.87
  L 249.34 433.87
  C 249.34 457.65 268.61 476.92 292.37 476.92
  L 334.31 476.92
  C 358.07 476.92 377.34 457.65 377.34 433.87
  L 377.34 433.87
  C 377.34 432.53 376.25 431.44 374.91 431.44"
/>
<path stroke="#8f8f8e" vector-effect="non-scaling-stroke" d="
  M 246.39 536.14
  C 243.73 532.09 241.17 527.97 238.72 523.80
  C 236.21 519.54 230.69 520.29 231.43 525.99
  C 231.47 526.28 231.58 526.56 231.74 526.81
  L 242.31 543.08
  C 242.48 543.35 242.58 543.64 242.60 543.96
  C 242.80 547.84 241.89 555.79 243.28 559.02
  C 243.42 559.34 243.66 559.59 243.96 559.75
  C 246.33 560.98 248.43 560.57 250.27 558.53
  C 250.43 558.35 250.52 558.12 250.52 557.88
  L 250.84 543.59
  C 250.84 543.47 250.88 543.34 250.95 543.24
  C 254.50 537.92 257.99 532.57 261.43 527.18
  C 264.74 522.00 258.31 518.54 254.59 524.53
  C 252.16 528.44 249.68 532.31 247.13 536.15
  C 246.88 536.52 246.64 536.52 246.39 536.14"
/>
<path stroke="#8f8f8e" vector-effect="non-scaling-stroke" d="
  M 413.71 535.23
  C 415.38 541.30 417.28 548.08 419.43 555.57
  C 420.28 558.54 421.98 561.06 425.45 560.39
  C 428.52 559.79 428.94 557.32 429.71 554.61
  C 432.52 544.64 434.71 535.27 436.28 526.51
  C 436.53 525.14 436.44 523.77 436.03 522.40
  C 435.94 522.12 435.73 521.89 435.46 521.78
  C 432.34 520.55 430.18 521.43 429.33 524.81
  C 427.52 532.06 426.63 540.15 424.04 547.10
  C 423.82 547.68 423.64 547.67 423.50 547.06
  C 421.92 540.23 420.17 533.45 418.25 526.70
  C 416.98 522.19 414.14 519.47 409.52 522.15
  C 409.27 522.29 409.08 522.51 408.96 522.76
  C 405.46 530.14 404.32 538.73 401.55 546.52
  C 401.48 546.71 401.29 546.82 401.09 546.78
  C 400.89 546.74 400.75 546.56 400.76 546.36
  C 401.05 540.23 397.62 530.37 395.98 524.26
  C 394.88 520.17 392.26 520.42 389.34 522.68
  C 389.07 522.89 388.92 523.17 388.88 523.50
  C 388.75 524.71 388.87 526.12 389.26 527.75
  C 391.36 536.54 393.58 545.29 395.93 554.01
  C 396.65 556.69 397.08 558.16 397.23 558.43
  C 399.04 561.68 404.55 560.80 405.70 557.12
  C 407.95 549.90 409.95 542.62 411.69 535.27
  C 412.32 532.62 412.99 532.60 413.71 535.23"
/>
<path stroke="#8f8f8e" vector-effect="non-scaling-stroke" d="
  M 81.31 546.37
  C 81.63 548.08 81.53 549.77 81.00 551.42
  C 80.89 551.76 80.67 552.01 80.36 552.18
  C 64.41 560.52 55.26 544.54 62.52 531.79
  C 65.42 526.71 72.85 526.60 77.45 528.84
  C 77.75 528.98 77.98 529.23 78.12 529.53
  C 79.09 531.70 81.30 534.61 83.95 534.54
  C 86.72 534.47 87.98 531.49 86.97 529.26
  C 83.45 521.43 74.33 520.25 66.49 521.81
  C 55.53 523.98 51.64 532.76 52.37 543.09
  C 53.68 561.54 73.55 564.21 86.48 555.92
  C 89.68 553.86 88.51 546.03 88.49 542.57
  C 88.48 541.47 87.70 540.53 86.62 540.34
  C 82.69 539.63 78.47 539.45 73.95 539.80
  C 71.51 539.99 70.98 541.24 70.99 543.47
  C 70.99 544.61 71.89 545.55 73.03 545.59
  L 80.74 545.88
  C 81.06 545.89 81.25 546.05 81.31 546.37"
/>
<path stroke="#8f8f8e" vector-effect="non-scaling-stroke" d="
  M 199.01 524.63
  C 199.01 522.75 197.48 521.22 195.60 521.22
  L 195.20 521.22
  C 193.32 521.22 191.79 522.75 191.79 524.63
  L 191.79 556.97
  C 191.79 558.85 193.32 560.38 195.20 560.38
  L 195.60 560.38
  C 197.48 560.38 199.01 558.85 199.01 556.97
  L 199.01 524.63"
/>
<path stroke="#8f8f8e" vector-effect="non-scaling-stroke" d="
  M 478.4613 524.3939
  C 478.46 522.67 477.06 521.28 475.3359 521.2793
  L 474.5359 521.2807
  C 472.81 521.28 471.42 522.68 471.4213 524.4062
  L 471.4787 557.2861
  C 471.48 559.01 472.88 560.40 474.6041 560.4007
  L 475.4041 560.3993
  C 477.13 560.40 478.52 559.00 478.5187 557.2738
  L 478.4613 524.3939"
/>
<path stroke="#8f8f8e" vector-effect="non-scaling-stroke" d="
  M 495.20 537.76
  L 498.66 537.26
  C 499.08 537.20 499.41 536.87 499.46 536.46
  L 499.84 533.59
  C 499.89 533.22 499.72 532.99 499.35 532.92
  L 494.96 532.04
  C 494.61 531.97 494.37 531.65 494.41 531.29
  L 494.79 527.59
  C 494.86 526.94 495.22 526.60 495.87 526.58
  L 500.67 526.46
  C 501.82 526.43 502.44 525.84 502.51 524.69
  C 502.85 519.31 489.25 520.50 487.37 525.18
  C 486.69 526.88 487.20 529.40 486.83 531.47
  C 486.77 531.82 486.57 532.02 486.22 532.06
  L 483.24 532.41
  C 482.91 532.45 482.62 532.65 482.47 532.94
  C 481.72 534.37 481.81 535.72 482.74 536.98
  C 482.95 537.27 483.22 537.43 483.57 537.47
  L 486.28 537.81
  C 486.65 537.86 486.83 538.07 486.84 538.44
  C 486.88 544.18 486.95 549.92 487.05 555.65
  C 487.08 557.68 486.38 559.60 489.14 560.09
  C 492.59 560.71 494.35 559.35 494.43 556.01
  C 494.57 550.35 494.51 544.65 494.24 538.92
  C 494.21 538.24 494.53 537.85 495.20 537.76"
/>
<path stroke="#8f8f8e" vector-effect="non-scaling-stroke" d="
  M 354.81 534.39
  C 353.84 535.32 353.39 535.11 353.46 533.77
  C 353.66 529.91 353.45 526.07 352.84 522.25
  C 352.78 521.84 352.42 521.53 352.00 521.54
  L 347.76 521.61
  C 347.38 521.61 347.11 521.78 346.94 522.13
  C 346.37 523.36 346.08 524.34 346.07 525.07
  C 345.96 533.81 345.86 542.55 345.75 551.29
  C 345.71 554.90 345.71 563.22 352.35 559.63
  C 352.90 559.33 353.26 558.75 353.29 558.12
  C 353.56 552.24 350.75 536.69 360.48 537.55
  C 363.05 537.78 363.82 539.52 363.90 541.84
  C 364.13 548.41 364.28 553.24 364.35 556.33
  C 364.44 560.17 366.69 561.54 370.14 559.91
  C 370.80 559.60 371.22 558.94 371.23 558.22
  C 371.27 553.02 372.44 540.66 370.43 536.25
  C 367.78 530.42 358.65 530.71 354.81 534.39"
/>
<path stroke="#8f8f8e" vector-effect="non-scaling-stroke" d="
  M 213.28 525.02
  C 213.28 523.04 211.68 521.44 209.70 521.44
  C 207.72 521.44 206.12 523.04 206.12 525.02
  C 206.12 527.00 207.72 528.60 209.70 528.60
  C 211.68 528.60 213.28 527.00 213.28 525.02"
/>
<path stroke="#8f8f8e" vector-effect="non-scaling-stroke" d="
  M 336.33 553.38
  L 336.21 538.52
  C 336.21 538.01 336.46 537.73 336.97 537.66
  L 340.61 537.19
  C 340.94 537.15 341.11 536.96 341.10 536.62
  L 340.99 533.17
  C 340.98 532.82 340.72 532.52 340.38 532.47
  L 336.59 531.86
  C 336.25 531.80 336.00 531.51 336.00 531.16
  C 336.00 528.50 337.32 522.72 332.91 522.38
  C 331.71 522.28 330.60 522.50 329.57 523.04
  C 329.27 523.20 329.07 523.50 329.05 523.84
  C 328.91 526.29 328.79 528.74 328.69 531.19
  C 328.64 532.29 327.82 532.67 326.23 532.32
  C 325.69 532.20 325.18 532.61 325.17 533.16
  L 325.11 536.63
  C 325.11 536.99 325.29 537.19 325.64 537.24
  L 328.09 537.58
  C 328.47 537.63 328.76 537.96 328.76 538.35
  C 328.74 542.65 327.72 554.06 329.68 557.50
  C 332.20 561.91 339.27 560.66 343.26 558.95
  C 343.63 558.79 343.80 558.51 343.79 558.10
  L 343.65 555.08
  C 343.63 554.58 343.15 554.22 342.66 554.35
  C 340.81 554.84 338.96 554.85 337.11 554.38
  C 336.65 554.26 336.33 553.85 336.33 553.38"
/>
<path stroke="#8f8f8e" vector-effect="non-scaling-stroke" d="
  M 122.14 546.06
  C 122.14 538.06 115.65 531.57 107.65 531.57
  C 99.65 531.57 93.16 538.06 93.16 546.06
  C 93.16 554.06 99.65 560.55 107.65 560.55
  C 115.65 560.55 122.14 554.06 122.14 546.06"
/>
<path stroke="#8f8f8e" vector-effect="non-scaling-stroke" d="
  M 134.11 534.76
  C 132.95 531.17 127.38 530.42 127.19 534.51
  C 126.72 544.43 126.80 556.12 127.42 569.57
  C 127.44 570.00 127.72 570.36 128.11 570.51
  C 129.79 571.13 131.47 571.12 133.14 570.47
  C 133.49 570.34 133.72 570.01 133.73 569.64
  L 134.11 558.66
  C 134.16 557.28 134.72 557.02 135.80 557.88
  C 143.34 563.87 151.77 559.26 154.23 550.95
  C 157.81 538.83 147.20 525.15 134.78 534.96
  C 134.46 535.21 134.24 535.14 134.11 534.76"
/>
<path stroke="#8f8f8e" vector-effect="non-scaling-stroke" d="
  M 178.80 557.21
  C 179.85 559.69 181.70 560.61 184.34 559.97
  C 185.46 559.70 186.17 558.59 185.95 557.45
  C 185.03 552.68 184.60 547.88 184.66 543.05
  C 184.70 539.70 184.39 537.40 183.73 536.13
  C 180.28 529.54 161.56 530.00 160.30 538.15
  C 159.85 541.09 161.65 542.82 164.61 541.58
  C 166.00 541.00 166.60 538.56 168.31 537.67
  C 171.38 536.07 178.74 536.05 177.42 541.63
  C 177.35 541.93 177.10 542.16 176.79 542.21
  C 171.41 543.17 159.98 544.08 159.27 550.75
  C 157.99 562.83 171.03 561.81 177.99 556.98
  C 178.36 556.72 178.63 556.80 178.80 557.21"
/>
<path stroke="#8f8f8e" vector-effect="non-scaling-stroke" d="
  M 213.23 534.70
  C 213.23 533.09 211.93 531.79 210.32 531.79
  L 209.16 531.79
  C 207.55 531.79 206.25 533.09 206.25 534.70
  L 206.25 557.38
  C 206.25 558.99 207.55 560.29 209.16 560.29
  L 210.32 560.29
  C 211.93 560.29 213.23 558.99 213.23 557.38
  L 213.23 534.70"
/>
<path stroke="#8f8f8e" vector-effect="non-scaling-stroke" d="
  M 289.9183 544.5229
  C 289.96 537.52 284.31 531.81 277.3049 531.7767
  L 274.8249 531.7637
  C 267.82 531.73 262.12 537.37 262.0787 544.3771
  L 262.0617 547.6371
  C 262.02 554.64 267.67 560.35 274.6751 560.3833
  L 277.1551 560.3963
  C 284.16 560.43 289.86 554.79 289.9013 547.7829
  L 289.9183 544.5229"
/>
<path stroke="#8f8f8e" vector-effect="non-scaling-stroke" d="
  M 447.28 548.00
  C 452.11 548.06 457.16 547.95 462.44 547.68
  C 464.39 547.58 465.56 546.30 465.56 544.30
  C 465.61 527.59 440.70 527.17 438.87 543.36
  C 438.24 549.02 439.38 555.26 444.51 558.24
  C 449.55 561.17 460.88 561.60 464.17 555.92
  C 465.16 554.21 465.32 552.79 464.65 551.65
  C 463.95 550.45 462.33 550.18 461.28 551.08
  C 456.21 555.39 448.88 558.65 446.11 549.57
  C 445.87 548.78 446.46 547.99 447.28 548.00"
/>
<path stroke="#8f8f8e" vector-effect="non-scaling-stroke" d="
  M 521.00 557.31
  L 523.24 559.91
  C 523.37 560.06 523.54 560.17 523.72 560.23
  C 525.56 560.81 527.04 560.39 528.17 558.98
  C 528.42 558.67 528.53 558.31 528.48 557.92
  C 527.90 552.79 527.53 547.66 527.37 542.52
  C 527.03 531.37 519.26 530.79 509.96 532.05
  C 501.42 533.21 500.77 544.49 507.28 541.36
  C 507.58 541.21 507.81 541.00 507.98 540.72
  C 510.30 536.82 518.37 534.03 520.16 540.12
  C 520.48 541.21 520.08 541.88 518.97 542.12
  C 515.17 542.92 511.27 543.90 507.27 545.07
  C 501.85 546.66 499.27 551.76 502.41 556.50
  C 506.66 562.93 514.80 560.57 520.07 557.17
  C 520.42 556.95 520.73 557.00 521.00 557.31"
/>
<path stroke="#8f8f8e" vector-effect="non-scaling-stroke" d="
  M 541.21 534.23
  C 540.14 532.15 538.36 531.47 535.86 532.18
  C 535.55 532.27 535.30 532.46 535.13 532.73
  C 533.14 535.93 534.24 551.35 534.28 555.82
  C 534.34 562.78 541.56 560.94 541.51 557.03
  C 541.43 550.71 540.75 544.45 543.15 539.42
  C 543.29 539.11 543.51 538.88 543.81 538.72
  C 546.77 537.13 548.83 538.61 552.04 538.51
  C 552.39 538.50 552.70 538.32 552.90 538.04
  C 554.25 536.08 553.73 533.82 551.51 532.69
  C 547.97 530.90 544.76 531.45 541.89 534.34
  C 541.62 534.62 541.39 534.58 541.21 534.23"
/>
<path stroke="#8f8f8e" vector-effect="non-scaling-stroke" d="
  M 563.04 548.05
  C 567.31 547.79 571.59 547.69 575.89 547.75
  C 580.46 547.81 582.72 546.36 581.53 541.44
  C 579.12 531.47 568.20 529.21 560.60 533.87
  C 554.78 537.44 553.72 545.20 555.46 551.29
  C 558.18 560.75 569.81 562.37 577.35 558.42
  C 579.52 557.28 583.34 552.44 579.66 550.80
  C 578.77 550.40 577.74 550.57 577.02 551.22
  C 575.15 552.92 573.16 555.01 570.52 555.33
  C 565.78 555.91 563.13 553.67 562.58 548.60
  C 562.54 548.25 562.69 548.07 563.04 548.05"
/>
<path stroke="#8f8f8e" vector-effect="non-scaling-stroke" d="
  M 313.92 557.21
  L 315.17 559.73
  C 315.34 560.06 315.60 560.27 315.96 560.36
  C 319.42 561.23 320.46 558.97 320.49 555.95
  C 320.54 549.28 320.53 542.60 320.45 535.93
  C 320.43 534.80 320.23 533.72 319.86 532.70
  C 319.75 532.40 319.48 532.19 319.16 532.17
  L 315.66 531.94
  C 314.71 531.88 313.90 532.62 313.86 533.57
  C 313.64 538.60 313.48 543.51 313.38 548.29
  C 313.30 552.22 310.65 555.05 306.69 554.60
  C 301.18 553.99 301.97 540.40 302.29 535.00
  C 302.53 530.94 299.07 531.85 296.59 532.17
  C 296.18 532.22 295.93 532.45 295.84 532.85
  C 294.55 538.55 295.51 547.26 295.63 551.75
  C 295.90 562.13 306.96 562.08 313.18 557.05
  C 313.42 556.86 313.78 556.94 313.92 557.21"
/>
<path stroke="#8f8f8e" vector-effect="non-scaling-stroke" d="
  M 224.94 591.72
  C 222.37 598.02 226.62 603.79 232.81 605.43
  C 237.48 606.66 247.63 608.41 246.01 613.63
  C 244.30 619.15 235.45 619.69 232.28 615.33
  C 230.76 613.23 229.06 607.41 225.18 610.04
  C 219.56 613.84 228.23 621.77 232.02 622.89
  C 238.58 624.84 248.03 624.43 252.14 618.18
  C 256.32 611.84 253.44 604.18 246.21 601.86
  C 242.40 600.64 238.57 599.45 234.74 598.29
  C 231.71 597.37 230.48 593.00 233.23 591.72
  C 238.95 589.07 243.03 590.25 245.47 595.26
  C 248.51 601.52 255.43 594.97 249.35 588.30
  C 243.99 582.42 228.30 583.48 224.94 591.72"
/>
<path stroke="#8f8f8e" vector-effect="non-scaling-stroke" d="
  M 330.55 588.50
  C 330.55 586.50 328.93 584.88 326.93 584.88
  C 324.93 584.88 323.31 586.50 323.31 588.50
  C 323.31 590.50 324.93 592.12 326.93 592.12
  C 328.93 592.12 330.55 590.50 330.55 588.50"
/>
<path stroke="#8f8f8e" vector-effect="non-scaling-stroke" d="
  M 377.67 617.21
  L 377.49 601.21
  C 377.49 600.74 377.71 600.59 378.15 600.74
  C 382.79 602.34 385.05 597.05 381.50 596.24
  C 380.35 595.97 379.17 595.70 377.95 595.43
  C 377.64 595.36 377.42 595.07 377.44 594.75
  C 377.65 591.56 378.06 586.55 374.51 585.78
  C 369.14 584.62 370.36 592.24 369.92 595.41
  C 369.88 595.70 369.68 595.95 369.39 596.04
  L 367.01 596.81
  C 366.00 597.14 365.39 598.17 365.60 599.22
  C 365.81 600.26 366.77 600.98 367.83 600.89
  C 368.66 600.82 369.35 601.03 369.89 601.52
  C 370.15 601.76 370.28 602.06 370.27 602.41
  C 370.19 606.97 370.22 611.52 370.37 616.06
  C 370.48 619.28 370.70 622.13 374.18 623.30
  C 377.85 624.54 381.47 624.20 385.02 622.29
  C 385.30 622.14 385.45 621.83 385.41 621.52
  L 385.04 618.93
  C 384.99 618.58 384.70 618.32 384.35 618.31
  L 378.58 618.14
  C 378.08 618.13 377.68 617.72 377.67 617.21"
/>
<path stroke="#8f8f8e" vector-effect="non-scaling-stroke" d="
  M 302.31 601.23
  C 306.88 599.41 309.02 602.98 311.96 605.83
  C 312.18 606.04 312.45 606.18 312.74 606.24
  C 314.49 606.58 315.70 606.29 316.35 605.36
  C 318.75 601.95 313.76 597.56 311.06 596.38
  C 296.22 589.90 284.45 605.94 292.87 618.67
  C 299.46 628.66 321.55 622.54 316.77 613.27
  C 316.62 612.97 316.39 612.75 316.08 612.62
  C 311.24 610.54 311.48 614.58 309.01 616.63
  C 298.93 625.03 292.94 604.96 302.31 601.23"
/>
<path stroke="#8f8f8e" vector-effect="non-scaling-stroke" d="
  M 344.59 611.65
  C 349.05 611.36 353.54 611.22 358.05 611.25
  C 362.53 611.28 363.93 609.54 363.04 605.16
  C 359.57 588.08 332.30 593.40 336.59 613.14
  C 337.94 619.34 341.47 622.90 347.74 623.73
  C 353.31 624.47 363.46 622.92 362.61 615.17
  C 362.57 614.83 362.32 614.56 361.99 614.49
  C 357.46 613.66 356.08 618.48 351.50 618.81
  C 347.17 619.11 343.85 616.91 344.00 612.25
  C 344.01 611.87 344.21 611.67 344.59 611.65"
/>
<path stroke="#8f8f8e" vector-effect="non-scaling-stroke" d="
  M 286.1272 607.9557
  C 286.11 600.95 280.43 595.29 273.4250 595.2979
  L 270.9450 595.3022
  C 263.94 595.31 258.27 601.00 258.2872 608.0043
  L 258.2928 611.2443
  C 258.31 618.25 263.99 623.91 270.9950 623.9021
  L 273.4750 623.8978
  C 280.48 623.89 286.15 618.20 286.1328 611.1957
  L 286.1272 607.9557"
/>
<path stroke="#8f8f8e" vector-effect="non-scaling-stroke" d="
  M 330.8287 598.9066
  C 330.83 596.91 329.22 595.29 327.2250 595.2903
  L 326.8850 595.2897
  C 324.89 595.29 323.27 596.90 323.2687 598.8934
  L 323.2313 620.2934
  C 323.23 622.29 324.84 623.91 326.8350 623.9097
  L 327.1750 623.9103
  C 329.17 623.91 330.79 622.30 330.7913 620.3066
  L 330.8287 598.9066"
/>
<path stroke="#8f8f8e" vector-effect="non-scaling-stroke" d="
  M 397.72 614.01
  C 396.23 608.65 394.39 603.24 392.18 597.78
  C 390.06 592.52 383.95 595.91 385.93 600.81
  C 388.66 607.54 391.32 614.29 393.92 621.04
  C 395.64 625.49 392.71 629.32 387.80 628.87
  C 385.34 628.64 383.75 629.43 384.67 632.23
  C 384.76 632.52 384.94 632.76 385.19 632.93
  C 389.32 635.71 397.46 634.99 399.62 630.09
  C 402.31 624.01 406.01 614.28 410.73 600.91
  C 411.17 599.67 410.98 597.95 411.01 596.60
  C 411.02 596.20 410.74 595.84 410.34 595.76
  L 406.95 595.10
  C 406.36 594.99 405.97 595.21 405.77 595.77
  L 399.23 614.06
  C 398.97 614.79 397.93 614.75 397.72 614.01"
/>
<path stroke="#80d1e0" vector-effect="non-scaling-stroke" d="
  M 242.69 162.31
  C 257.73 172.50 268.86 159.12 271.51 145.25
  C 272.92 137.92 274.67 132.14 276.76 127.91
  C 283.98 113.35 263.66 112.02 255.25 112.25
  C 246.52 112.50 239.33 121.36 236.99 129.01
  C 234.11 138.45 233.61 156.16 242.69 162.31"
/>
<path stroke="#8f8f8e" vector-effect="non-scaling-stroke" d="
  M 107.4060 554.9461
  C 111.18 555.06 114.36 551.17 114.5070 546.2529
  C 114.65 541.34 111.71 537.27 107.9340 537.1539
  C 104.16 537.04 100.98 540.93 100.8330 545.8471
  C 100.69 550.76 103.63 554.83 107.4060 554.9461"
/>
<path stroke="#8f8f8e" vector-effect="non-scaling-stroke" d="
  M 140.8434 554.7297
  C 144.54 554.76 147.58 550.86 147.6197 546.0085
  C 147.66 541.16 144.70 537.20 140.9966 537.1703
  C 137.30 537.14 134.26 541.04 134.2203 545.8915
  C 134.18 550.74 137.14 554.70 140.8434 554.7297"
/>
<path stroke="#8f8f8e" vector-effect="non-scaling-stroke" d="
  M 175.55 546.81
  L 166.72 549.67
  C 165.96 549.91 165.53 550.74 165.78 551.50
  L 165.82 551.61
  C 166.74 554.48 169.81 556.07 172.65 555.15
  L 173.95 554.73
  C 176.80 553.81 178.35 550.73 177.43 547.86
  L 177.39 547.75
  C 177.14 546.99 176.32 546.57 175.55 546.81"
/>
<path stroke="#8f8f8e" vector-effect="non-scaling-stroke" d="
  M 275.9823 554.9498
  C 279.77 554.92 282.80 550.90 282.7698 545.9722
  C 282.74 541.04 279.64 537.06 275.8577 537.0902
  C 272.07 537.12 269.04 541.14 269.0702 546.0678
  C 269.10 551.00 272.20 554.98 275.9823 554.9498"
/>
<path stroke="#8f8f8e" vector-effect="non-scaling-stroke" d="
  M 446.67 543.51
  L 457.91 543.49
  C 458.06 543.49 458.19 543.36 458.19 543.21
  L 458.18 542.72
  C 458.18 539.52 455.62 536.93 452.46 536.94
  L 452.08 536.94
  C 448.93 536.95 446.38 539.54 446.38 542.74
  L 446.39 543.23
  C 446.39 543.38 446.51 543.51 446.67 543.51"
/>
<path stroke="#8f8f8e" vector-effect="non-scaling-stroke" d="
  M 518.17 546.41
  L 509.03 549.89
  C 508.32 550.16 507.97 550.95 508.24 551.65
  L 508.26 551.72
  C 509.37 554.63 512.68 556.08 515.65 554.95
  L 516.58 554.59
  C 519.56 553.46 521.07 550.19 519.97 547.27
  L 519.94 547.21
  C 519.67 546.50 518.88 546.15 518.17 546.41"
/>
<path stroke="#8f8f8e" vector-effect="non-scaling-stroke" d="
  M 563.15 543.56
  L 574.15 543.54
  C 574.30 543.54 574.42 543.42 574.42 543.27
  L 574.41 542.54
  C 574.41 539.36 571.82 536.78 568.63 536.79
  L 568.63 536.79
  C 565.45 536.80 562.87 539.38 562.87 542.56
  L 562.88 543.29
  C 562.88 543.44 563.00 543.56 563.15 543.56"
/>
<path stroke="#8f8f8e" vector-effect="non-scaling-stroke" d="
  M 344.48 607.30
  L 355.76 607.04
  C 355.95 607.04 356.10 606.88 356.10 606.68
  L 356.10 606.57
  C 356.02 603.00 353.33 600.15 350.10 600.23
  L 349.82 600.23
  C 346.59 600.31 344.04 603.27 344.12 606.85
  L 344.12 606.96
  C 344.13 607.15 344.29 607.30 344.48 607.30"
/>
<path stroke="#8f8f8e" vector-effect="non-scaling-stroke" d="
  M 272.1500 618.5000
  C 275.88 618.50 278.91 614.50 278.9100 609.5700
  C 278.91 604.64 275.88 600.64 272.1500 600.6400
  C 268.42 600.64 265.39 604.64 265.3900 609.5700
  C 265.39 614.50 268.42 618.50 272.1500 618.5000"
/>
</g>
<path fill="#000000" d="
  M 0.00 0.00
  L 640.00 0.00
  L 640.00 3.57
  C 572.51 3.98 505.01 4.03 437.50 3.70
  C 422.65 3.63 407.37 4.61 393.01 4.23
  C 380.97 3.90 369.02 3.49 356.91 3.58
  C 251.97 4.43 168.03 3.57 42.00 3.98
  C 31.84 4.01 17.84 3.81 0.00 3.38
  L 0.00 0.00
  Z"
/>
<path fill="#1e1f1d" d="
  M 0.00 3.38
  C 17.84 3.81 31.84 4.01 42.00 3.98
  C 168.03 3.57 251.97 4.43 356.91 3.58
  C 369.02 3.49 380.97 3.90 393.01 4.23
  C 407.37 4.61 422.65 3.63 437.50 3.70
  C 505.01 4.03 572.51 3.98 640.00 3.57
  L 640.00 640.00
  L 0.00 640.00
  L 0.00 3.38
  Z
  M 349.03 40.57
  C 348.08 41.06 347.28 41.78 346.65 42.71
  C 335.79 40.06 326.41 39.01 318.50 39.57
  C 312.12 40.02 305.73 40.28 299.34 40.34
  C 298.62 40.35 297.71 40.50 296.61 40.81
  C 294.54 41.37 291.22 41.10 289.71 41.31
  C 281.12 42.50 272.61 44.15 264.19 46.27
  C 260.82 47.12 257.34 48.36 253.76 50.00
  C 249.75 51.85 244.90 52.62 241.20 54.33
  C 236.15 56.67 231.26 59.28 226.52 62.16
  C 183.33 87.19 152.06 127.11 140.36 175.64
  C 127.99 226.94 139.29 281.50 171.01 323.81
  C 189.90 348.77 213.69 367.67 242.36 380.52
  C 246.21 382.25 249.84 383.08 253.25 383.03
  C 289.68 382.45 320.90 382.39 346.93 382.84
  C 358.24 383.04 367.61 383.01 375.04 382.75
  C 380.92 382.55 387.18 379.26 392.34 376.61
  C 404.01 370.61 414.96 363.52 425.21 355.35
  C 425.88 354.82 426.70 354.04 427.69 353.02
  C 428.41 352.28 429.23 351.50 430.15 350.68
  C 437.98 344.71 445.29 337.25 452.06 328.31
  C 456.53 322.92 460.70 317.07 464.56 310.78
  C 470.75 300.89 475.95 290.37 480.18 279.21
  C 493.68 242.29 494.95 204.70 483.98 166.45
  C 471.28 125.80 447.30 93.55 412.04 69.69
  C 401.89 62.82 391.00 57.05 379.35 52.38
  C 389.34 38.76 398.50 27.16 406.81 17.57
  C 409.02 15.02 409.42 12.70 408.01 10.62
  C 403.14 3.46 382.46 12.25 377.11 15.93
  C 366.80 23.02 357.44 31.23 349.03 40.57
  Z
  M 377.13 401.75
  C 377.13 400.24 375.91 399.02 374.40 399.02
  L 252.26 399.02
  C 250.75 399.02 249.53 400.24 249.53 401.75
  L 249.53 416.01
  C 249.53 417.52 250.75 418.74 252.26 418.74
  L 374.40 418.74
  C 375.91 418.74 377.13 417.52 377.13 416.01
  L 377.13 401.75
  Z
  M 374.91 431.44
  L 251.77 431.44
  C 250.43 431.44 249.34 432.53 249.34 433.87
  L 249.34 433.87
  C 249.34 457.65 268.61 476.92 292.37 476.92
  L 334.31 476.92
  C 358.07 476.92 377.34 457.65 377.34 433.87
  L 377.34 433.87
  C 377.34 432.53 376.25 431.44 374.91 431.44
  Z
  M 246.39 536.14
  C 243.73 532.09 241.17 527.97 238.72 523.80
  C 236.21 519.54 230.69 520.29 231.43 525.99
  C 231.47 526.28 231.58 526.56 231.74 526.81
  L 242.31 543.08
  C 242.48 543.35 242.58 543.64 242.60 543.96
  C 242.80 547.84 241.89 555.79 243.28 559.02
  C 243.42 559.34 243.66 559.59 243.96 559.75
  C 246.33 560.98 248.43 560.57 250.27 558.53
  C 250.43 558.35 250.52 558.12 250.52 557.88
  L 250.84 543.59
  C 250.84 543.47 250.88 543.34 250.95 543.24
  C 254.50 537.92 257.99 532.57 261.43 527.18
  C 264.74 522.00 258.31 518.54 254.59 524.53
  C 252.16 528.44 249.68 532.31 247.13 536.15
  C 246.88 536.52 246.64 536.52 246.39 536.14
  Z
  M 413.71 535.23
  C 415.38 541.30 417.28 548.08 419.43 555.57
  C 420.28 558.54 421.98 561.06 425.45 560.39
  C 428.52 559.79 428.94 557.32 429.71 554.61
  C 432.52 544.64 434.71 535.27 436.28 526.51
  C 436.53 525.14 436.44 523.77 436.03 522.40
  C 435.94 522.12 435.73 521.89 435.46 521.78
  C 432.34 520.55 430.18 521.43 429.33 524.81
  C 427.52 532.06 426.63 540.15 424.04 547.10
  C 423.82 547.68 423.64 547.67 423.50 547.06
  C 421.92 540.23 420.17 533.45 418.25 526.70
  C 416.98 522.19 414.14 519.47 409.52 522.15
  C 409.27 522.29 409.08 522.51 408.96 522.76
  C 405.46 530.14 404.32 538.73 401.55 546.52
  C 401.48 546.71 401.29 546.82 401.09 546.78
  C 400.89 546.74 400.75 546.56 400.76 546.36
  C 401.05 540.23 397.62 530.37 395.98 524.26
  C 394.88 520.17 392.26 520.42 389.34 522.68
  C 389.07 522.89 388.92 523.17 388.88 523.50
  C 388.75 524.71 388.87 526.12 389.26 527.75
  C 391.36 536.54 393.58 545.29 395.93 554.01
  C 396.65 556.69 397.08 558.16 397.23 558.43
  C 399.04 561.68 404.55 560.80 405.70 557.12
  C 407.95 549.90 409.95 542.62 411.69 535.27
  C 412.32 532.62 412.99 532.60 413.71 535.23
  Z
  M 81.31 546.37
  C 81.63 548.08 81.53 549.77 81.00 551.42
  C 80.89 551.76 80.67 552.01 80.36 552.18
  C 64.41 560.52 55.26 544.54 62.52 531.79
  C 65.42 526.71 72.85 526.60 77.45 528.84
  C 77.75 528.98 77.98 529.23 78.12 529.53
  C 79.09 531.70 81.30 534.61 83.95 534.54
  C 86.72 534.47 87.98 531.49 86.97 529.26
  C 83.45 521.43 74.33 520.25 66.49 521.81
  C 55.53 523.98 51.64 532.76 52.37 543.09
  C 53.68 561.54 73.55 564.21 86.48 555.92
  C 89.68 553.86 88.51 546.03 88.49 542.57
  C 88.48 541.47 87.70 540.53 86.62 540.34
  C 82.69 539.63 78.47 539.45 73.95 539.80
  C 71.51 539.99 70.98 541.24 70.99 543.47
  C 70.99 544.61 71.89 545.55 73.03 545.59
  L 80.74 545.88
  C 81.06 545.89 81.25 546.05 81.31 546.37
  Z
  M 199.01 524.63
  C 199.01 522.75 197.48 521.22 195.60 521.22
  L 195.20 521.22
  C 193.32 521.22 191.79 522.75 191.79 524.63
  L 191.79 556.97
  C 191.79 558.85 193.32 560.38 195.20 560.38
  L 195.60 560.38
  C 197.48 560.38 199.01 558.85 199.01 556.97
  L 199.01 524.63
  Z
  M 478.4613 524.3939
  C 478.46 522.67 477.06 521.28 475.3359 521.2793
  L 474.5359 521.2807
  C 472.81 521.28 471.42 522.68 471.4213 524.4062
  L 471.4787 557.2861
  C 471.48 559.01 472.88 560.40 474.6041 560.4007
  L 475.4041 560.3993
  C 477.13 560.40 478.52 559.00 478.5187 557.2738
  L 478.4613 524.3939
  Z
  M 495.20 537.76
  L 498.66 537.26
  C 499.08 537.20 499.41 536.87 499.46 536.46
  L 499.84 533.59
  C 499.89 533.22 499.72 532.99 499.35 532.92
  L 494.96 532.04
  C 494.61 531.97 494.37 531.65 494.41 531.29
  L 494.79 527.59
  C 494.86 526.94 495.22 526.60 495.87 526.58
  L 500.67 526.46
  C 501.82 526.43 502.44 525.84 502.51 524.69
  C 502.85 519.31 489.25 520.50 487.37 525.18
  C 486.69 526.88 487.20 529.40 486.83 531.47
  C 486.77 531.82 486.57 532.02 486.22 532.06
  L 483.24 532.41
  C 482.91 532.45 482.62 532.65 482.47 532.94
  C 481.72 534.37 481.81 535.72 482.74 536.98
  C 482.95 537.27 483.22 537.43 483.57 537.47
  L 486.28 537.81
  C 486.65 537.86 486.83 538.07 486.84 538.44
  C 486.88 544.18 486.95 549.92 487.05 555.65
  C 487.08 557.68 486.38 559.60 489.14 560.09
  C 492.59 560.71 494.35 559.35 494.43 556.01
  C 494.57 550.35 494.51 544.65 494.24 538.92
  C 494.21 538.24 494.53 537.85 495.20 537.76
  Z
  M 354.81 534.39
  C 353.84 535.32 353.39 535.11 353.46 533.77
  C 353.66 529.91 353.45 526.07 352.84 522.25
  C 352.78 521.84 352.42 521.53 352.00 521.54
  L 347.76 521.61
  C 347.38 521.61 347.11 521.78 346.94 522.13
  C 346.37 523.36 346.08 524.34 346.07 525.07
  C 345.96 533.81 345.86 542.55 345.75 551.29
  C 345.71 554.90 345.71 563.22 352.35 559.63
  C 352.90 559.33 353.26 558.75 353.29 558.12
  C 353.56 552.24 350.75 536.69 360.48 537.55
  C 363.05 537.78 363.82 539.52 363.90 541.84
  C 364.13 548.41 364.28 553.24 364.35 556.33
  C 364.44 560.17 366.69 561.54 370.14 559.91
  C 370.80 559.60 371.22 558.94 371.23 558.22
  C 371.27 553.02 372.44 540.66 370.43 536.25
  C 367.78 530.42 358.65 530.71 354.81 534.39
  Z
  M 213.28 525.02
  C 213.28 523.04 211.68 521.44 209.70 521.44
  C 207.72 521.44 206.12 523.04 206.12 525.02
  C 206.12 527.00 207.72 528.60 209.70 528.60
  C 211.68 528.60 213.28 527.00 213.28 525.02
  Z
  M 336.33 553.38
  L 336.21 538.52
  C 336.21 538.01 336.46 537.73 336.97 537.66
  L 340.61 537.19
  C 340.94 537.15 341.11 536.96 341.10 536.62
  L 340.99 533.17
  C 340.98 532.82 340.72 532.52 340.38 532.47
  L 336.59 531.86
  C 336.25 531.80 336.00 531.51 336.00 531.16
  C 336.00 528.50 337.32 522.72 332.91 522.38
  C 331.71 522.28 330.60 522.50 329.57 523.04
  C 329.27 523.20 329.07 523.50 329.05 523.84
  C 328.91 526.29 328.79 528.74 328.69 531.19
  C 328.64 532.29 327.82 532.67 326.23 532.32
  C 325.69 532.20 325.18 532.61 325.17 533.16
  L 325.11 536.63
  C 325.11 536.99 325.29 537.19 325.64 537.24
  L 328.09 537.58
  C 328.47 537.63 328.76 537.96 328.76 538.35
  C 328.74 542.65 327.72 554.06 329.68 557.50
  C 332.20 561.91 339.27 560.66 343.26 558.95
  C 343.63 558.79 343.80 558.51 343.79 558.10
  L 343.65 555.08
  C 343.63 554.58 343.15 554.22 342.66 554.35
  C 340.81 554.84 338.96 554.85 337.11 554.38
  C 336.65 554.26 336.33 553.85 336.33 553.38
  Z
  M 122.14 546.06
  C 122.14 538.06 115.65 531.57 107.65 531.57
  C 99.65 531.57 93.16 538.06 93.16 546.06
  C 93.16 554.06 99.65 560.55 107.65 560.55
  C 115.65 560.55 122.14 554.06 122.14 546.06
  Z
  M 134.11 534.76
  C 132.95 531.17 127.38 530.42 127.19 534.51
  C 126.72 544.43 126.80 556.12 127.42 569.57
  C 127.44 570.00 127.72 570.36 128.11 570.51
  C 129.79 571.13 131.47 571.12 133.14 570.47
  C 133.49 570.34 133.72 570.01 133.73 569.64
  L 134.11 558.66
  C 134.16 557.28 134.72 557.02 135.80 557.88
  C 143.34 563.87 151.77 559.26 154.23 550.95
  C 157.81 538.83 147.20 525.15 134.78 534.96
  C 134.46 535.21 134.24 535.14 134.11 534.76
  Z
  M 178.80 557.21
  C 179.85 559.69 181.70 560.61 184.34 559.97
  C 185.46 559.70 186.17 558.59 185.95 557.45
  C 185.03 552.68 184.60 547.88 184.66 543.05
  C 184.70 539.70 184.39 537.40 183.73 536.13
  C 180.28 529.54 161.56 530.00 160.30 538.15
  C 159.85 541.09 161.65 542.82 164.61 541.58
  C 166.00 541.00 166.60 538.56 168.31 537.67
  C 171.38 536.07 178.74 536.05 177.42 541.63
  C 177.35 541.93 177.10 542.16 176.79 542.21
  C 171.41 543.17 159.98 544.08 159.27 550.75
  C 157.99 562.83 171.03 561.81 177.99 556.98
  C 178.36 556.72 178.63 556.80 178.80 557.21
  Z
  M 213.23 534.70
  C 213.23 533.09 211.93 531.79 210.32 531.79
  L 209.16 531.79
  C 207.55 531.79 206.25 533.09 206.25 534.70
  L 206.25 557.38
  C 206.25 558.99 207.55 560.29 209.16 560.29
  L 210.32 560.29
  C 211.93 560.29 213.23 558.99 213.23 557.38
  L 213.23 534.70
  Z
  M 289.9183 544.5229
  C 289.96 537.52 284.31 531.81 277.3049 531.7767
  L 274.8249 531.7637
  C 267.82 531.73 262.12 537.37 262.0787 544.3771
  L 262.0617 547.6371
  C 262.02 554.64 267.67 560.35 274.6751 560.3833
  L 277.1551 560.3963
  C 284.16 560.43 289.86 554.79 289.9013 547.7829
  L 289.9183 544.5229
  Z
  M 447.28 548.00
  C 452.11 548.06 457.16 547.95 462.44 547.68
  C 464.39 547.58 465.56 546.30 465.56 544.30
  C 465.61 527.59 440.70 527.17 438.87 543.36
  C 438.24 549.02 439.38 555.26 444.51 558.24
  C 449.55 561.17 460.88 561.60 464.17 555.92
  C 465.16 554.21 465.32 552.79 464.65 551.65
  C 463.95 550.45 462.33 550.18 461.28 551.08
  C 456.21 555.39 448.88 558.65 446.11 549.57
  C 445.87 548.78 446.46 547.99 447.28 548.00
  Z
  M 521.00 557.31
  L 523.24 559.91
  C 523.37 560.06 523.54 560.17 523.72 560.23
  C 525.56 560.81 527.04 560.39 528.17 558.98
  C 528.42 558.67 528.53 558.31 528.48 557.92
  C 527.90 552.79 527.53 547.66 527.37 542.52
  C 527.03 531.37 519.26 530.79 509.96 532.05
  C 501.42 533.21 500.77 544.49 507.28 541.36
  C 507.58 541.21 507.81 541.00 507.98 540.72
  C 510.30 536.82 518.37 534.03 520.16 540.12
  C 520.48 541.21 520.08 541.88 518.97 542.12
  C 515.17 542.92 511.27 543.90 507.27 545.07
  C 501.85 546.66 499.27 551.76 502.41 556.50
  C 506.66 562.93 514.80 560.57 520.07 557.17
  C 520.42 556.95 520.73 557.00 521.00 557.31
  Z
  M 541.21 534.23
  C 540.14 532.15 538.36 531.47 535.86 532.18
  C 535.55 532.27 535.30 532.46 535.13 532.73
  C 533.14 535.93 534.24 551.35 534.28 555.82
  C 534.34 562.78 541.56 560.94 541.51 557.03
  C 541.43 550.71 540.75 544.45 543.15 539.42
  C 543.29 539.11 543.51 538.88 543.81 538.72
  C 546.77 537.13 548.83 538.61 552.04 538.51
  C 552.39 538.50 552.70 538.32 552.90 538.04
  C 554.25 536.08 553.73 533.82 551.51 532.69
  C 547.97 530.90 544.76 531.45 541.89 534.34
  C 541.62 534.62 541.39 534.58 541.21 534.23
  Z
  M 563.04 548.05
  C 567.31 547.79 571.59 547.69 575.89 547.75
  C 580.46 547.81 582.72 546.36 581.53 541.44
  C 579.12 531.47 568.20 529.21 560.60 533.87
  C 554.78 537.44 553.72 545.20 555.46 551.29
  C 558.18 560.75 569.81 562.37 577.35 558.42
  C 579.52 557.28 583.34 552.44 579.66 550.80
  C 578.77 550.40 577.74 550.57 577.02 551.22
  C 575.15 552.92 573.16 555.01 570.52 555.33
  C 565.78 555.91 563.13 553.67 562.58 548.60
  C 562.54 548.25 562.69 548.07 563.04 548.05
  Z
  M 313.92 557.21
  L 315.17 559.73
  C 315.34 560.06 315.60 560.27 315.96 560.36
  C 319.42 561.23 320.46 558.97 320.49 555.95
  C 320.54 549.28 320.53 542.60 320.45 535.93
  C 320.43 534.80 320.23 533.72 319.86 532.70
  C 319.75 532.40 319.48 532.19 319.16 532.17
  L 315.66 531.94
  C 314.71 531.88 313.90 532.62 313.86 533.57
  C 313.64 538.60 313.48 543.51 313.38 548.29
  C 313.30 552.22 310.65 555.05 306.69 554.60
  C 301.18 553.99 301.97 540.40 302.29 535.00
  C 302.53 530.94 299.07 531.85 296.59 532.17
  C 296.18 532.22 295.93 532.45 295.84 532.85
  C 294.55 538.55 295.51 547.26 295.63 551.75
  C 295.90 562.13 306.96 562.08 313.18 557.05
  C 313.42 556.86 313.78 556.94 313.92 557.21
  Z
  M 224.94 591.72
  C 222.37 598.02 226.62 603.79 232.81 605.43
  C 237.48 606.66 247.63 608.41 246.01 613.63
  C 244.30 619.15 235.45 619.69 232.28 615.33
  C 230.76 613.23 229.06 607.41 225.18 610.04
  C 219.56 613.84 228.23 621.77 232.02 622.89
  C 238.58 624.84 248.03 624.43 252.14 618.18
  C 256.32 611.84 253.44 604.18 246.21 601.86
  C 242.40 600.64 238.57 599.45 234.74 598.29
  C 231.71 597.37 230.48 593.00 233.23 591.72
  C 238.95 589.07 243.03 590.25 245.47 595.26
  C 248.51 601.52 255.43 594.97 249.35 588.30
  C 243.99 582.42 228.30 583.48 224.94 591.72
  Z
  M 330.55 588.50
  C 330.55 586.50 328.93 584.88 326.93 584.88
  C 324.93 584.88 323.31 586.50 323.31 588.50
  C 323.31 590.50 324.93 592.12 326.93 592.12
  C 328.93 592.12 330.55 590.50 330.55 588.50
  Z
  M 377.67 617.21
  L 377.49 601.21
  C 377.49 600.74 377.71 600.59 378.15 600.74
  C 382.79 602.34 385.05 597.05 381.50 596.24
  C 380.35 595.97 379.17 595.70 377.95 595.43
  C 377.64 595.36 377.42 595.07 377.44 594.75
  C 377.65 591.56 378.06 586.55 374.51 585.78
  C 369.14 584.62 370.36 592.24 369.92 595.41
  C 369.88 595.70 369.68 595.95 369.39 596.04
  L 367.01 596.81
  C 366.00 597.14 365.39 598.17 365.60 599.22
  C 365.81 600.26 366.77 600.98 367.83 600.89
  C 368.66 600.82 369.35 601.03 369.89 601.52
  C 370.15 601.76 370.28 602.06 370.27 602.41
  C 370.19 606.97 370.22 611.52 370.37 616.06
  C 370.48 619.28 370.70 622.13 374.18 623.30
  C 377.85 624.54 381.47 624.20 385.02 622.29
  C 385.30 622.14 385.45 621.83 385.41 621.52
  L 385.04 618.93
  C 384.99 618.58 384.70 618.32 384.35 618.31
  L 378.58 618.14
  C 378.08 618.13 377.68 617.72 377.67 617.21
  Z
  M 302.31 601.23
  C 306.88 599.41 309.02 602.98 311.96 605.83
  C 312.18 606.04 312.45 606.18 312.74 606.24
  C 314.49 606.58 315.70 606.29 316.35 605.36
  C 318.75 601.95 313.76 597.56 311.06 596.38
  C 296.22 589.90 284.45 605.94 292.87 618.67
  C 299.46 628.66 321.55 622.54 316.77 613.27
  C 316.62 612.97 316.39 612.75 316.08 612.62
  C 311.24 610.54 311.48 614.58 309.01 616.63
  C 298.93 625.03 292.94 604.96 302.31 601.23
  Z
  M 344.59 611.65
  C 349.05 611.36 353.54 611.22 358.05 611.25
  C 362.53 611.28 363.93 609.54 363.04 605.16
  C 359.57 588.08 332.30 593.40 336.59 613.14
  C 337.94 619.34 341.47 622.90 347.74 623.73
  C 353.31 624.47 363.46 622.92 362.61 615.17
  C 362.57 614.83 362.32 614.56 361.99 614.49
  C 357.46 613.66 356.08 618.48 351.50 618.81
  C 347.17 619.11 343.85 616.91 344.00 612.25
  C 344.01 611.87 344.21 611.67 344.59 611.65
  Z
  M 286.1272 607.9557
  C 286.11 600.95 280.43 595.29 273.4250 595.2979
  L 270.9450 595.3022
  C 263.94 595.31 258.27 601.00 258.2872 608.0043
  L 258.2928 611.2443
  C 258.31 618.25 263.99 623.91 270.9950 623.9021
  L 273.4750 623.8978
  C 280.48 623.89 286.15 618.20 286.1328 611.1957
  L 286.1272 607.9557
  Z
  M 330.8287 598.9066
  C 330.83 596.91 329.22 595.29 327.2250 595.2903
  L 326.8850 595.2897
  C 324.89 595.29 323.27 596.90 323.2687 598.8934
  L 323.2313 620.2934
  C 323.23 622.29 324.84 623.91 326.8350 623.9097
  L 327.1750 623.9103
  C 329.17 623.91 330.79 622.30 330.7913 620.3066
  L 330.8287 598.9066
  Z
  M 397.72 614.01
  C 396.23 608.65 394.39 603.24 392.18 597.78
  C 390.06 592.52 383.95 595.91 385.93 600.81
  C 388.66 607.54 391.32 614.29 393.92 621.04
  C 395.64 625.49 392.71 629.32 387.80 628.87
  C 385.34 628.64 383.75 629.43 384.67 632.23
  C 384.76 632.52 384.94 632.76 385.19 632.93
  C 389.32 635.71 397.46 634.99 399.62 630.09
  C 402.31 624.01 406.01 614.28 410.73 600.91
  C 411.17 599.67 410.98 597.95 411.01 596.60
  C 411.02 596.20 410.74 595.84 410.34 595.76
  L 406.95 595.10
  C 406.36 594.99 405.97 595.21 405.77 595.77
  L 399.23 614.06
  C 398.97 614.79 397.93 614.75 397.72 614.01
  Z"
/>
<path fill="#f6ee00" d="
  M 379.35 52.38
  L 378.01 53.44
  C 377.65 51.44 376.09 50.16 373.32 49.61
  C 370.61 49.07 365.61 47.83 358.32 45.90
  C 358.02 45.82 357.79 45.61 357.63 45.28
  C 357.49 44.99 357.26 44.83 356.93 44.81
  C 353.94 44.65 351.28 43.66 348.95 41.83
  C 348.69 41.62 348.63 41.37 348.78 41.08
  L 349.03 40.57
  C 357.44 31.23 366.80 23.02 377.11 15.93
  C 382.46 12.25 403.14 3.46 408.01 10.62
  C 409.42 12.70 409.02 15.02 406.81 17.57
  C 398.50 27.16 389.34 38.76 379.35 52.38
  Z"
/>
<path fill="#00a2c2" d="
  M 346.65 42.71
  L 343.86 46.02
  C 342.69 46.85 341.66 47.76 340.75 48.75
  C 317.68 74.13 297.24 102.61 286.99 135.72
  C 284.16 147.32 280.82 158.75 276.97 170.01
  C 273.45 180.30 267.77 190.28 256.92 192.23
  C 247.86 193.86 239.70 188.83 234.57 181.53
  C 225.83 170.03 223.47 155.14 223.47 141.11
  C 223.47 136.24 223.54 131.37 223.69 126.51
  C 224.52 121.83 228.41 106.92 220.96 107.46
  C 216.00 107.82 213.30 111.60 211.64 115.99
  C 209.49 111.53 212.46 109.03 213.65 105.57
  C 215.26 100.91 216.81 96.22 218.28 91.50
  C 218.85 89.69 219.12 88.35 219.10 87.49
  C 219.09 87.16 219.16 86.84 219.29 86.53
  C 220.76 83.21 223.09 79.82 223.44 76.11
  C 223.74 72.94 224.71 69.98 226.34 67.25
  C 226.51 66.98 226.61 66.68 226.64 66.36
  L 227.00 62.68
  C 227.02 62.50 226.95 62.36 226.80 62.26
  C 226.72 62.20 226.63 62.17 226.52 62.16
  C 231.26 59.28 236.15 56.67 241.20 54.33
  C 244.90 52.62 249.75 51.85 253.76 50.00
  C 257.34 48.36 260.82 47.12 264.19 46.27
  C 272.61 44.15 281.12 42.50 289.71 41.31
  C 291.22 41.10 294.54 41.37 296.61 40.81
  C 297.71 40.50 298.62 40.35 299.34 40.34
  C 305.73 40.28 312.12 40.02 318.50 39.57
  C 326.41 39.01 335.79 40.06 346.65 42.71
  Z
  M 242.69 162.31
  C 257.73 172.50 268.86 159.12 271.51 145.25
  C 272.92 137.92 274.67 132.14 276.76 127.91
  C 283.98 113.35 263.66 112.02 255.25 112.25
  C 246.52 112.50 239.33 121.36 236.99 129.01
  C 234.11 138.45 233.61 156.16 242.69 162.31
  Z"
/>
<path fill="#fffffe" d="
  M 349.03 40.57
  L 348.78 41.08
  C 348.63 41.37 348.69 41.62 348.95 41.83
  C 351.28 43.66 353.94 44.65 356.93 44.81
  C 357.26 44.83 357.49 44.99 357.63 45.28
  C 357.79 45.61 358.02 45.82 358.32 45.90
  C 365.61 47.83 370.61 49.07 373.32 49.61
  C 376.09 50.16 377.65 51.44 378.01 53.44
  C 364.34 72.36 352.58 92.38 342.73 113.49
  C 332.30 135.87 324.93 159.19 326.56 183.72
  C 328.54 213.57 356.16 245.63 381.21 261.02
  C 383.10 262.46 384.92 263.65 386.67 264.58
  C 403.19 273.42 420.82 278.46 439.56 279.69
  C 445.04 280.05 456.86 280.90 465.28 279.18
  C 469.37 278.34 473.52 277.99 477.73 278.13
  C 478.05 278.14 478.32 278.25 478.55 278.48
  C 478.92 278.85 479.47 279.10 480.18 279.21
  C 475.95 290.37 470.75 300.89 464.56 310.78
  C 456.63 309.16 450.26 311.06 442.83 310.97
  C 424.84 310.75 407.18 308.32 389.87 303.69
  C 379.53 300.93 368.08 295.90 357.24 291.91
  C 354.20 290.79 351.82 290.32 350.09 290.51
  C 344.30 291.14 341.77 296.49 343.49 301.88
  C 347.71 315.08 370.14 323.78 383.04 325.61
  C 405.04 328.72 423.39 330.70 444.14 328.56
  C 446.32 328.34 449.29 326.63 452.06 328.31
  C 445.29 337.25 437.98 344.71 430.15 350.68
  C 368.86 347.47 310.96 340.57 262.46 298.98
  C 224.27 264.37 197.84 216.09 201.45 163.52
  C 202.03 155.09 203.08 147.01 204.60 139.26
  C 205.05 136.97 205.29 135.25 205.32 134.09
  C 205.33 133.79 205.50 133.51 205.83 133.26
  C 206.06 133.09 206.21 132.83 206.25 132.55
  C 206.38 131.62 206.34 130.69 206.13 129.77
  C 206.12 129.73 206.14 129.69 206.18 129.67
  C 206.22 129.66 206.27 129.67 206.29 129.71
  C 206.37 129.87 206.43 130.04 206.48 130.22
  C 206.54 130.43 206.62 130.44 206.71 130.24
  C 208.82 125.60 209.83 120.81 211.64 115.99
  C 213.30 111.60 216.00 107.82 220.96 107.46
  C 228.41 106.92 224.52 121.83 223.69 126.51
  C 223.06 135.30 222.71 144.17 222.66 153.12
  C 222.63 157.60 221.54 160.77 224.24 165.04
  C 224.41 165.32 224.52 165.62 224.57 165.95
  C 225.02 169.19 228.49 174.41 230.06 177.44
  C 231.32 179.87 232.82 181.23 234.57 181.53
  C 239.70 188.83 247.86 193.86 256.92 192.23
  C 267.77 190.28 273.45 180.30 276.97 170.01
  C 280.82 158.75 284.16 147.32 286.99 135.72
  C 288.41 135.78 288.98 135.07 288.71 133.58
  C 288.64 133.22 288.70 132.88 288.89 132.57
  L 290.43 129.94
  C 290.58 129.68 290.67 129.40 290.70 129.10
  C 290.84 127.50 292.50 126.11 292.51 125.08
  C 292.52 124.75 292.62 124.46 292.81 124.20
  C 295.05 121.21 296.41 117.19 297.82 114.66
  C 299.08 112.39 301.52 109.13 301.76 106.61
  C 301.79 106.30 301.91 106.03 302.14 105.80
  C 304.63 103.28 305.56 99.79 307.04 97.45
  C 308.82 94.63 310.66 91.85 312.55 89.10
  C 312.88 88.63 313.67 87.14 314.94 84.65
  C 317.04 80.51 320.84 79.49 322.62 74.87
  C 323.16 73.48 324.88 72.38 325.66 71.23
  C 327.13 69.06 329.18 66.43 331.81 63.32
  C 335.32 59.18 339.34 53.41 343.86 46.02
  L 346.65 42.71
  C 347.28 41.78 348.08 41.06 349.03 40.57
  Z"
/>
<path fill="#a3f2f0" d="
  M 343.86 46.02
  C 339.34 53.41 335.32 59.18 331.81 63.32
  C 329.18 66.43 327.13 69.06 325.66 71.23
  C 324.88 72.38 323.16 73.48 322.62 74.87
  C 320.84 79.49 317.04 80.51 314.94 84.65
  C 313.67 87.14 312.88 88.63 312.55 89.10
  C 310.66 91.85 308.82 94.63 307.04 97.45
  C 305.56 99.79 304.63 103.28 302.14 105.80
  C 301.91 106.03 301.79 106.30 301.76 106.61
  C 301.52 109.13 299.08 112.39 297.82 114.66
  C 296.41 117.19 295.05 121.21 292.81 124.20
  C 292.62 124.46 292.52 124.75 292.51 125.08
  C 292.50 126.11 290.84 127.50 290.70 129.10
  C 290.67 129.40 290.58 129.68 290.43 129.94
  L 288.89 132.57
  C 288.70 132.88 288.64 133.22 288.71 133.58
  C 288.98 135.07 288.41 135.78 286.99 135.72
  C 297.24 102.61 317.68 74.13 340.75 48.75
  C 341.66 47.76 342.69 46.85 343.86 46.02
  Z"
/>
<path fill="#52c785" d="
  M 379.35 52.38
  C 391.00 57.05 401.89 62.82 412.04 69.69
  C 447.30 93.55 471.28 125.80 483.98 166.45
  C 483.07 166.57 482.32 167.28 482.00 168.19
  C 479.84 174.20 477.94 180.56 475.04 185.94
  C 455.70 221.84 416.13 243.18 381.21 261.02
  C 356.16 245.63 328.54 213.57 326.56 183.72
  C 324.93 159.19 332.30 135.87 342.73 113.49
  C 352.58 92.38 364.34 72.36 378.01 53.44
  L 379.35 52.38
  Z"
/>
<path fill="#ff5f13" d="
  M 226.52 62.16
  C 226.63 62.17 226.72 62.20 226.80 62.26
  C 226.95 62.36 227.02 62.50 227.00 62.68
  L 226.64 66.36
  C 226.61 66.68 226.51 66.98 226.34 67.25
  C 224.71 69.98 223.74 72.94 223.44 76.11
  C 223.09 79.82 220.76 83.21 219.29 86.53
  C 219.16 86.84 219.09 87.16 219.10 87.49
  C 219.12 88.35 218.85 89.69 218.28 91.50
  C 216.81 96.22 215.26 100.91 213.65 105.57
  C 212.46 109.03 209.49 111.53 211.64 115.99
  C 209.83 120.81 208.82 125.60 206.71 130.24
  C 206.62 130.44 206.54 130.43 206.48 130.22
  C 206.43 130.04 206.37 129.87 206.29 129.71
  C 206.27 129.67 206.22 129.66 206.18 129.67
  C 206.14 129.69 206.12 129.73 206.13 129.77
  C 206.34 130.69 206.38 131.62 206.25 132.55
  C 206.21 132.83 206.06 133.09 205.83 133.26
  C 205.50 133.51 205.33 133.79 205.32 134.09
  C 205.29 135.25 205.05 136.97 204.60 139.26
  C 203.08 147.01 202.03 155.09 201.45 163.52
  C 197.84 216.09 224.27 264.37 262.46 298.98
  L 260.95 301.75
  C 260.80 302.04 260.56 302.23 260.24 302.32
  C 235.13 309.37 211.65 315.13 189.82 319.60
  C 181.20 321.37 174.93 322.77 171.01 323.81
  C 139.29 281.50 127.99 226.94 140.36 175.64
  C 152.06 127.11 183.33 87.19 226.52 62.16
  Z"
/>
<path fill="#fffffe" d="
  M 242.69 162.31
  C 233.61 156.16 234.11 138.45 236.99 129.01
  C 239.33 121.36 246.52 112.50 255.25 112.25
  C 263.66 112.02 283.98 113.35 276.76 127.91
  C 274.67 132.14 272.92 137.92 271.51 145.25
  C 268.86 159.12 257.73 172.50 242.69 162.31
  Z"
/>
<path fill="#a3f2f0" d="
  M 223.69 126.51
  C 223.54 131.37 223.47 136.24 223.47 141.11
  C 223.47 155.14 225.83 170.03 234.57 181.53
  C 232.82 181.23 231.32 179.87 230.06 177.44
  C 228.49 174.41 225.02 169.19 224.57 165.95
  C 224.52 165.62 224.41 165.32 224.24 165.04
  C 221.54 160.77 222.63 157.60 222.66 153.12
  C 222.71 144.17 223.06 135.30 223.69 126.51
  Z"
/>
<path fill="#f6ee00" d="
  M 483.98 166.45
  C 494.95 204.70 493.68 242.29 480.18 279.21
  C 479.47 279.10 478.92 278.85 478.55 278.48
  C 478.32 278.25 478.05 278.14 477.73 278.13
  C 473.52 277.99 469.37 278.34 465.28 279.18
  C 456.86 280.90 445.04 280.05 439.56 279.69
  C 420.82 278.46 403.19 273.42 386.67 264.58
  C 384.92 263.65 383.10 262.46 381.21 261.02
  C 416.13 243.18 455.70 221.84 475.04 185.94
  C 477.94 180.56 479.84 174.20 482.00 168.19
  C 482.32 167.28 483.07 166.57 483.98 166.45
  Z"
/>
<path fill="#f6ee00" d="
  M 464.56 310.78
  C 460.70 317.07 456.53 322.92 452.06 328.31
  C 449.29 326.63 446.32 328.34 444.14 328.56
  C 423.39 330.70 405.04 328.72 383.04 325.61
  C 370.14 323.78 347.71 315.08 343.49 301.88
  C 341.77 296.49 344.30 291.14 350.09 290.51
  C 351.82 290.32 354.20 290.79 357.24 291.91
  C 368.08 295.90 379.53 300.93 389.87 303.69
  C 407.18 308.32 424.84 310.75 442.83 310.97
  C 450.26 311.06 456.63 309.16 464.56 310.78
  Z"
/>
<path fill="#675d90" d="
  M 262.46 298.98
  C 310.96 340.57 368.86 347.47 430.15 350.68
  C 429.23 351.50 428.41 352.28 427.69 353.02
  C 426.70 354.04 425.88 354.82 425.21 355.35
  C 414.96 363.52 404.01 370.61 392.34 376.61
  C 387.18 379.26 380.92 382.55 375.04 382.75
  C 367.61 383.01 358.24 383.04 346.93 382.84
  C 320.90 382.39 289.68 382.45 253.25 383.03
  C 249.84 383.08 246.21 382.25 242.36 380.52
  C 213.69 367.67 189.90 348.77 171.01 323.81
  C 174.93 322.77 181.20 321.37 189.82 319.60
  C 211.65 315.13 235.13 309.37 260.24 302.32
  C 260.56 302.23 260.80 302.04 260.95 301.75
  L 262.46 298.98
  Z"
/>
<rect fill="#675d90" x="249.53" y="399.02" width="127.60" height="19.72" rx="2.73"/>
<path fill="#675d90" d="
  M 374.91 431.44
  C 376.25 431.44 377.34 432.53 377.34 433.87
  L 377.34 433.87
  C 377.34 457.65 358.07 476.92 334.31 476.92
  L 292.37 476.92
  C 268.61 476.92 249.34 457.65 249.34 433.87
  L 249.34 433.87
  C 249.34 432.53 250.43 431.44 251.77 431.44
  L 374.91 431.44
  Z"
/>
<path fill="#fffffe" d="
  M 247.13 536.15
  C 249.68 532.31 252.16 528.44 254.59 524.53
  C 258.31 518.54 264.74 522.00 261.43 527.18
  C 257.99 532.57 254.50 537.92 250.95 543.24
  C 250.88 543.34 250.84 543.47 250.84 543.59
  L 250.52 557.88
  C 250.52 558.12 250.43 558.35 250.27 558.53
  C 248.43 560.57 246.33 560.98 243.96 559.75
  C 243.66 559.59 243.42 559.34 243.28 559.02
  C 241.89 555.79 242.80 547.84 242.60 543.96
  C 242.58 543.64 242.48 543.35 242.31 543.08
  L 231.74 526.81
  C 231.58 526.56 231.47 526.28 231.43 525.99
  C 230.69 520.29 236.21 519.54 238.72 523.80
  C 241.17 527.97 243.73 532.09 246.39 536.14
  C 246.64 536.52 246.88 536.52 247.13 536.15
  Z"
/>
<path fill="#fffffe" d="
  M 413.71 535.23
  C 412.99 532.60 412.32 532.62 411.69 535.27
  C 409.95 542.62 407.95 549.90 405.70 557.12
  C 404.55 560.80 399.04 561.68 397.23 558.43
  C 397.08 558.16 396.65 556.69 395.93 554.01
  C 393.58 545.29 391.36 536.54 389.26 527.75
  C 388.87 526.12 388.75 524.71 388.88 523.50
  C 388.92 523.17 389.07 522.89 389.34 522.68
  C 392.26 520.42 394.88 520.17 395.98 524.26
  C 397.62 530.37 401.05 540.23 400.76 546.36
  C 400.75 546.56 400.89 546.74 401.09 546.78
  C 401.29 546.82 401.48 546.71 401.55 546.52
  C 404.32 538.73 405.46 530.14 408.96 522.76
  C 409.08 522.51 409.27 522.29 409.52 522.15
  C 414.14 519.47 416.98 522.19 418.25 526.70
  C 420.17 533.45 421.92 540.23 423.50 547.06
  C 423.64 547.67 423.82 547.68 424.04 547.10
  C 426.63 540.15 427.52 532.06 429.33 524.81
  C 430.18 521.43 432.34 520.55 435.46 521.78
  C 435.73 521.89 435.94 522.12 436.03 522.40
  C 436.44 523.77 436.53 525.14 436.28 526.51
  C 434.71 535.27 432.52 544.64 429.71 554.61
  C 428.94 557.32 428.52 559.79 425.45 560.39
  C 421.98 561.06 420.28 558.54 419.43 555.57
  C 417.28 548.08 415.38 541.30 413.71 535.23
  Z"
/>
<path fill="#fffffe" d="
  M 80.74 545.88
  L 73.03 545.59
  C 71.89 545.55 70.99 544.61 70.99 543.47
  C 70.98 541.24 71.51 539.99 73.95 539.80
  C 78.47 539.45 82.69 539.63 86.62 540.34
  C 87.70 540.53 88.48 541.47 88.49 542.57
  C 88.51 546.03 89.68 553.86 86.48 555.92
  C 73.55 564.21 53.68 561.54 52.37 543.09
  C 51.64 532.76 55.53 523.98 66.49 521.81
  C 74.33 520.25 83.45 521.43 86.97 529.26
  C 87.98 531.49 86.72 534.47 83.95 534.54
  C 81.30 534.61 79.09 531.70 78.12 529.53
  C 77.98 529.23 77.75 528.98 77.45 528.84
  C 72.85 526.60 65.42 526.71 62.52 531.79
  C 55.26 544.54 64.41 560.52 80.36 552.18
  C 80.67 552.01 80.89 551.76 81.00 551.42
  C 81.53 549.77 81.63 548.08 81.31 546.37
  C 81.25 546.05 81.06 545.89 80.74 545.88
  Z"
/>
<rect fill="#fffffe" x="191.79" y="521.22" width="7.22" height="39.16" rx="3.41"/>
<rect fill="#fffffe" x="-3.52" y="-19.56" transform="translate(474.97,540.84) rotate(-0.1)" width="7.04" height="39.12" rx="3.12"/>
<path fill="#fffffe" d="
  M 495.20 537.76
  C 494.53 537.85 494.21 538.24 494.24 538.92
  C 494.51 544.65 494.57 550.35 494.43 556.01
  C 494.35 559.35 492.59 560.71 489.14 560.09
  C 486.38 559.60 487.08 557.68 487.05 555.65
  C 486.95 549.92 486.88 544.18 486.84 538.44
  C 486.83 538.07 486.65 537.86 486.28 537.81
  L 483.57 537.47
  C 483.22 537.43 482.95 537.27 482.74 536.98
  C 481.81 535.72 481.72 534.37 482.47 532.94
  C 482.62 532.65 482.91 532.45 483.24 532.41
  L 486.22 532.06
  C 486.57 532.02 486.77 531.82 486.83 531.47
  C 487.20 529.40 486.69 526.88 487.37 525.18
  C 489.25 520.50 502.85 519.31 502.51 524.69
  C 502.44 525.84 501.82 526.43 500.67 526.46
  L 495.87 526.58
  C 495.22 526.60 494.86 526.94 494.79 527.59
  L 494.41 531.29
  C 494.37 531.65 494.61 531.97 494.96 532.04
  L 499.35 532.92
  C 499.72 532.99 499.89 533.22 499.84 533.59
  L 499.46 536.46
  C 499.41 536.87 499.08 537.20 498.66 537.26
  L 495.20 537.76
  Z"
/>
<path fill="#fffffe" d="
  M 354.81 534.39
  C 358.65 530.71 367.78 530.42 370.43 536.25
  C 372.44 540.66 371.27 553.02 371.23 558.22
  C 371.22 558.94 370.80 559.60 370.14 559.91
  C 366.69 561.54 364.44 560.17 364.35 556.33
  C 364.28 553.24 364.13 548.41 363.90 541.84
  C 363.82 539.52 363.05 537.78 360.48 537.55
  C 350.75 536.69 353.56 552.24 353.29 558.12
  C 353.26 558.75 352.90 559.33 352.35 559.63
  C 345.71 563.22 345.71 554.90 345.75 551.29
  C 345.86 542.55 345.96 533.81 346.07 525.07
  C 346.08 524.34 346.37 523.36 346.94 522.13
  C 347.11 521.78 347.38 521.61 347.76 521.61
  L 352.00 521.54
  C 352.42 521.53 352.78 521.84 352.84 522.25
  C 353.45 526.07 353.66 529.91 353.46 533.77
  C 353.39 535.11 353.84 535.32 354.81 534.39
  Z"
/>
<circle fill="#fffffe" cx="209.70" cy="525.02" r="3.58"/>
<path fill="#fffffe" d="
  M 337.11 554.38
  C 338.96 554.85 340.81 554.84 342.66 554.35
  C 343.15 554.22 343.63 554.58 343.65 555.08
  L 343.79 558.10
  C 343.80 558.51 343.63 558.79 343.26 558.95
  C 339.27 560.66 332.20 561.91 329.68 557.50
  C 327.72 554.06 328.74 542.65 328.76 538.35
  C 328.76 537.96 328.47 537.63 328.09 537.58
  L 325.64 537.24
  C 325.29 537.19 325.11 536.99 325.11 536.63
  L 325.17 533.16
  C 325.18 532.61 325.69 532.20 326.23 532.32
  C 327.82 532.67 328.64 532.29 328.69 531.19
  C 328.79 528.74 328.91 526.29 329.05 523.84
  C 329.07 523.50 329.27 523.20 329.57 523.04
  C 330.60 522.50 331.71 522.28 332.91 522.38
  C 337.32 522.72 336.00 528.50 336.00 531.16
  C 336.00 531.51 336.25 531.80 336.59 531.86
  L 340.38 532.47
  C 340.72 532.52 340.98 532.82 340.99 533.17
  L 341.10 536.62
  C 341.11 536.96 340.94 537.15 340.61 537.19
  L 336.97 537.66
  C 336.46 537.73 336.21 538.01 336.21 538.52
  L 336.33 553.38
  C 336.33 553.85 336.65 554.26 337.11 554.38
  Z"
/>
<path fill="#fffffe" d="
  M 122.14 546.06
  C 122.14 554.06 115.65 560.55 107.65 560.55
  C 99.65 560.55 93.16 554.06 93.16 546.06
  C 93.16 538.06 99.65 531.57 107.65 531.57
  C 115.65 531.57 122.14 538.06 122.14 546.06
  Z
  M 107.4060 554.9461
  C 111.18 555.06 114.36 551.17 114.5070 546.2529
  C 114.65 541.34 111.71 537.27 107.9340 537.1539
  C 104.16 537.04 100.98 540.93 100.8330 545.8471
  C 100.69 550.76 103.63 554.83 107.4060 554.9461
  Z"
/>
<path fill="#fffffe" d="
  M 134.78 534.96
  C 147.20 525.15 157.81 538.83 154.23 550.95
  C 151.77 559.26 143.34 563.87 135.80 557.88
  C 134.72 557.02 134.16 557.28 134.11 558.66
  L 133.73 569.64
  C 133.72 570.01 133.49 570.34 133.14 570.47
  C 131.47 571.12 129.79 571.13 128.11 570.51
  C 127.72 570.36 127.44 570.00 127.42 569.57
  C 126.80 556.12 126.72 544.43 127.19 534.51
  C 127.38 530.42 132.95 531.17 134.11 534.76
  C 134.24 535.14 134.46 535.21 134.78 534.96
  Z
  M 140.8434 554.7297
  C 144.54 554.76 147.58 550.86 147.6197 546.0085
  C 147.66 541.16 144.70 537.20 140.9966 537.1703
  C 137.30 537.14 134.26 541.04 134.2203 545.8915
  C 134.18 550.74 137.14 554.70 140.8434 554.7297
  Z"
/>
<path fill="#fffffe" d="
  M 177.99 556.98
  C 171.03 561.81 157.99 562.83 159.27 550.75
  C 159.98 544.08 171.41 543.17 176.79 542.21
  C 177.10 542.16 177.35 541.93 177.42 541.63
  C 178.74 536.05 171.38 536.07 168.31 537.67
  C 166.60 538.56 166.00 541.00 164.61 541.58
  C 161.65 542.82 159.85 541.09 160.30 538.15
  C 161.56 530.00 180.28 529.54 183.73 536.13
  C 184.39 537.40 184.70 539.70 184.66 543.05
  C 184.60 547.88 185.03 552.68 185.95 557.45
  C 186.17 558.59 185.46 559.70 184.34 559.97
  C 181.70 560.61 179.85 559.69 178.80 557.21
  C 178.63 556.80 178.36 556.72 177.99 556.98
  Z
  M 175.55 546.81
  L 166.72 549.67
  C 165.96 549.91 165.53 550.74 165.78 551.50
  L 165.82 551.61
  C 166.74 554.48 169.81 556.07 172.65 555.15
  L 173.95 554.73
  C 176.80 553.81 178.35 550.73 177.43 547.86
  L 177.39 547.75
  C 177.14 546.99 176.32 546.57 175.55 546.81
  Z"
/>
<rect fill="#fffffe" x="206.25" y="531.79" width="6.98" height="28.50" rx="2.91"/>
<path fill="#fffffe" d="
  M 289.9013 547.7829
  C 289.86 554.79 284.16 560.43 277.1551 560.3963
  L 274.6751 560.3833
  C 267.67 560.35 262.02 554.64 262.0617 547.6371
  L 262.0787 544.3771
  C 262.12 537.37 267.82 531.73 274.8249 531.7637
  L 277.3049 531.7767
  C 284.31 531.81 289.96 537.52 289.9183 544.5229
  L 289.9013 547.7829
  Z
  M 275.9823 554.9498
  C 279.77 554.92 282.80 550.90 282.7698 545.9722
  C 282.74 541.04 279.64 537.06 275.8577 537.0902
  C 272.07 537.12 269.04 541.14 269.0702 546.0678
  C 269.10 551.00 272.20 554.98 275.9823 554.9498
  Z"
/>
<path fill="#fffffe" d="
  M 447.28 548.00
  C 446.46 547.99 445.87 548.78 446.11 549.57
  C 448.88 558.65 456.21 555.39 461.28 551.08
  C 462.33 550.18 463.95 550.45 464.65 551.65
  C 465.32 552.79 465.16 554.21 464.17 555.92
  C 460.88 561.60 449.55 561.17 444.51 558.24
  C 439.38 555.26 438.24 549.02 438.87 543.36
  C 440.70 527.17 465.61 527.59 465.56 544.30
  C 465.56 546.30 464.39 547.58 462.44 547.68
  C 457.16 547.95 452.11 548.06 447.28 548.00
  Z
  M 446.67 543.51
  L 457.91 543.49
  C 458.06 543.49 458.19 543.36 458.19 543.21
  L 458.18 542.72
  C 458.18 539.52 455.62 536.93 452.46 536.94
  L 452.08 536.94
  C 448.93 536.95 446.38 539.54 446.38 542.74
  L 446.39 543.23
  C 446.39 543.38 446.51 543.51 446.67 543.51
  Z"
/>
<path fill="#fffffe" d="
  M 520.07 557.17
  C 514.80 560.57 506.66 562.93 502.41 556.50
  C 499.27 551.76 501.85 546.66 507.27 545.07
  C 511.27 543.90 515.17 542.92 518.97 542.12
  C 520.08 541.88 520.48 541.21 520.16 540.12
  C 518.37 534.03 510.30 536.82 507.98 540.72
  C 507.81 541.00 507.58 541.21 507.28 541.36
  C 500.77 544.49 501.42 533.21 509.96 532.05
  C 519.26 530.79 527.03 531.37 527.37 542.52
  C 527.53 547.66 527.90 552.79 528.48 557.92
  C 528.53 558.31 528.42 558.67 528.17 558.98
  C 527.04 560.39 525.56 560.81 523.72 560.23
  C 523.54 560.17 523.37 560.06 523.24 559.91
  L 521.00 557.31
  C 520.73 557.00 520.42 556.95 520.07 557.17
  Z
  M 518.17 546.41
  L 509.03 549.89
  C 508.32 550.16 507.97 550.95 508.24 551.65
  L 508.26 551.72
  C 509.37 554.63 512.68 556.08 515.65 554.95
  L 516.58 554.59
  C 519.56 553.46 521.07 550.19 519.97 547.27
  L 519.94 547.21
  C 519.67 546.50 518.88 546.15 518.17 546.41
  Z"
/>
<path fill="#fffffe" d="
  M 541.89 534.34
  C 544.76 531.45 547.97 530.90 551.51 532.69
  C 553.73 533.82 554.25 536.08 552.90 538.04
  C 552.70 538.32 552.39 538.50 552.04 538.51
  C 548.83 538.61 546.77 537.13 543.81 538.72
  C 543.51 538.88 543.29 539.11 543.15 539.42
  C 540.75 544.45 541.43 550.71 541.51 557.03
  C 541.56 560.94 534.34 562.78 534.28 555.82
  C 534.24 551.35 533.14 535.93 535.13 532.73
  C 535.30 532.46 535.55 532.27 535.86 532.18
  C 538.36 531.47 540.14 532.15 541.21 534.23
  C 541.39 534.58 541.62 534.62 541.89 534.34
  Z"
/>
<path fill="#fffffe" d="
  M 562.58 548.60
  C 563.13 553.67 565.78 555.91 570.52 555.33
  C 573.16 555.01 575.15 552.92 577.02 551.22
  C 577.74 550.57 578.77 550.40 579.66 550.80
  C 583.34 552.44 579.52 557.28 577.35 558.42
  C 569.81 562.37 558.18 560.75 555.46 551.29
  C 553.72 545.20 554.78 537.44 560.60 533.87
  C 568.20 529.21 579.12 531.47 581.53 541.44
  C 582.72 546.36 580.46 547.81 575.89 547.75
  C 571.59 547.69 567.31 547.79 563.04 548.05
  C 562.69 548.07 562.54 548.25 562.58 548.60
  Z
  M 563.15 543.56
  L 574.15 543.54
  C 574.30 543.54 574.42 543.42 574.42 543.27
  L 574.41 542.54
  C 574.41 539.36 571.82 536.78 568.63 536.79
  L 568.63 536.79
  C 565.45 536.80 562.87 539.38 562.87 542.56
  L 562.88 543.29
  C 562.88 543.44 563.00 543.56 563.15 543.56
  Z"
/>
<path fill="#fffffe" d="
  M 313.92 557.21
  C 313.78 556.94 313.42 556.86 313.18 557.05
  C 306.96 562.08 295.90 562.13 295.63 551.75
  C 295.51 547.26 294.55 538.55 295.84 532.85
  C 295.93 532.45 296.18 532.22 296.59 532.17
  C 299.07 531.85 302.53 530.94 302.29 535.00
  C 301.97 540.40 301.18 553.99 306.69 554.60
  C 310.65 555.05 313.30 552.22 313.38 548.29
  C 313.48 543.51 313.64 538.60 313.86 533.57
  C 313.90 532.62 314.71 531.88 315.66 531.94
  L 319.16 532.17
  C 319.48 532.19 319.75 532.40 319.86 532.70
  C 320.23 533.72 320.43 534.80 320.45 535.93
  C 320.53 542.60 320.54 549.28 320.49 555.95
  C 320.46 558.97 319.42 561.23 315.96 560.36
  C 315.60 560.27 315.34 560.06 315.17 559.73
  L 313.92 557.21
  Z"
/>
<path fill="#1e1f1d" d="
  M 563.15 543.56
  C 563.00 543.56 562.88 543.44 562.88 543.29
  L 562.87 542.56
  C 562.87 539.38 565.45 536.80 568.63 536.79
  L 568.63 536.79
  C 571.82 536.78 574.41 539.36 574.41 542.54
  L 574.42 543.27
  C 574.42 543.42 574.30 543.54 574.15 543.54
  L 563.15 543.56
  Z"
/>
<path fill="#1e1f1d" d="
  M 446.67 543.51
  C 446.51 543.51 446.39 543.38 446.39 543.23
  L 446.38 542.74
  C 446.38 539.54 448.93 536.95 452.08 536.94
  L 452.46 536.94
  C 455.62 536.93 458.18 539.52 458.18 542.72
  L 458.19 543.21
  C 458.19 543.36 458.06 543.49 457.91 543.49
  L 446.67 543.51
  Z"
/>
<ellipse fill="#1e1f1d" cx="0.00" cy="0.00" transform="translate(107.67,546.05) rotate(91.7)" rx="8.90" ry="6.84"/>
<ellipse fill="#1e1f1d" cx="0.00" cy="0.00" transform="translate(140.92,545.95) rotate(90.5)" rx="8.78" ry="6.70"/>
<ellipse fill="#1e1f1d" cx="0.00" cy="0.00" transform="translate(275.92,546.02) rotate(89.6)" rx="8.93" ry="6.85"/>
<path fill="#1e1f1d" d="
  M 175.55 546.81
  C 176.32 546.57 177.14 546.99 177.39 547.75
  L 177.43 547.86
  C 178.35 550.73 176.80 553.81 173.95 554.73
  L 172.65 555.15
  C 169.81 556.07 166.74 554.48 165.82 551.61
  L 165.78 551.50
  C 165.53 550.74 165.96 549.91 166.72 549.67
  L 175.55 546.81
  Z"
/>
<path fill="#1e1f1d" d="
  M 518.17 546.41
  C 518.88 546.15 519.67 546.50 519.94 547.21
  L 519.97 547.27
  C 521.07 550.19 519.56 553.46 516.58 554.59
  L 515.65 554.95
  C 512.68 556.08 509.37 554.63 508.26 551.72
  L 508.24 551.65
  C 507.97 550.95 508.32 550.16 509.03 549.89
  L 518.17 546.41
  Z"
/>
<path fill="#fffffe" d="
  M 232.81 605.43
  C 226.62 603.79 222.37 598.02 224.94 591.72
  C 228.30 583.48 243.99 582.42 249.35 588.30
  C 255.43 594.97 248.51 601.52 245.47 595.26
  C 243.03 590.25 238.95 589.07 233.23 591.72
  C 230.48 593.00 231.71 597.37 234.74 598.29
  C 238.57 599.45 242.40 600.64 246.21 601.86
  C 253.44 604.18 256.32 611.84 252.14 618.18
  C 248.03 624.43 238.58 624.84 232.02 622.89
  C 228.23 621.77 219.56 613.84 225.18 610.04
  C 229.06 607.41 230.76 613.23 232.28 615.33
  C 235.45 619.69 244.30 619.15 246.01 613.63
  C 247.63 608.41 237.48 606.66 232.81 605.43
  Z"
/>
<circle fill="#fffffe" cx="326.93" cy="588.50" r="3.62"/>
<path fill="#fffffe" d="
  M 378.58 618.14
  L 384.35 618.31
  C 384.70 618.32 384.99 618.58 385.04 618.93
  L 385.41 621.52
  C 385.45 621.83 385.30 622.14 385.02 622.29
  C 381.47 624.20 377.85 624.54 374.18 623.30
  C 370.70 622.13 370.48 619.28 370.37 616.06
  C 370.22 611.52 370.19 606.97 370.27 602.41
  C 370.28 602.06 370.15 601.76 369.89 601.52
  C 369.35 601.03 368.66 600.82 367.83 600.89
  C 366.77 600.98 365.81 600.26 365.60 599.22
  C 365.39 598.17 366.00 597.14 367.01 596.81
  L 369.39 596.04
  C 369.68 595.95 369.88 595.70 369.92 595.41
  C 370.36 592.24 369.14 584.62 374.51 585.78
  C 378.06 586.55 377.65 591.56 377.44 594.75
  C 377.42 595.07 377.64 595.36 377.95 595.43
  C 379.17 595.70 380.35 595.97 381.50 596.24
  C 385.05 597.05 382.79 602.34 378.15 600.74
  C 377.71 600.59 377.49 600.74 377.49 601.21
  L 377.67 617.21
  C 377.68 617.72 378.08 618.13 378.58 618.14
  Z"
/>
<path fill="#fffffe" d="
  M 302.31 601.23
  C 292.94 604.96 298.93 625.03 309.01 616.63
  C 311.48 614.58 311.24 610.54 316.08 612.62
  C 316.39 612.75 316.62 612.97 316.77 613.27
  C 321.55 622.54 299.46 628.66 292.87 618.67
  C 284.45 605.94 296.22 589.90 311.06 596.38
  C 313.76 597.56 318.75 601.95 316.35 605.36
  C 315.70 606.29 314.49 606.58 312.74 606.24
  C 312.45 606.18 312.18 606.04 311.96 605.83
  C 309.02 602.98 306.88 599.41 302.31 601.23
  Z"
/>
<path fill="#fffffe" d="
  M 344.00 612.25
  C 343.85 616.91 347.17 619.11 351.50 618.81
  C 356.08 618.48 357.46 613.66 361.99 614.49
  C 362.32 614.56 362.57 614.83 362.61 615.17
  C 363.46 622.92 353.31 624.47 347.74 623.73
  C 341.47 622.90 337.94 619.34 336.59 613.14
  C 332.30 593.40 359.57 588.08 363.04 605.16
  C 363.93 609.54 362.53 611.28 358.05 611.25
  C 353.54 611.22 349.05 611.36 344.59 611.65
  C 344.21 611.67 344.01 611.87 344.00 612.25
  Z
  M 344.48 607.30
  L 355.76 607.04
  C 355.95 607.04 356.10 606.88 356.10 606.68
  L 356.10 606.57
  C 356.02 603.00 353.33 600.15 350.10 600.23
  L 349.82 600.23
  C 346.59 600.31 344.04 603.27 344.12 606.85
  L 344.12 606.96
  C 344.13 607.15 344.29 607.30 344.48 607.30
  Z"
/>
<path fill="#fffffe" d="
  M 286.1328 611.1957
  C 286.15 618.20 280.48 623.89 273.4750 623.8978
  L 270.9950 623.9021
  C 263.99 623.91 258.31 618.25 258.2928 611.2443
  L 258.2872 608.0043
  C 258.27 601.00 263.94 595.31 270.9450 595.3022
  L 273.4250 595.2979
  C 280.43 595.29 286.11 600.95 286.1272 607.9557
  L 286.1328 611.1957
  Z
  M 272.1500 618.5000
  C 275.88 618.50 278.91 614.50 278.9100 609.5700
  C 278.91 604.64 275.88 600.64 272.1500 600.6400
  C 268.42 600.64 265.39 604.64 265.3900 609.5700
  C 265.39 614.50 268.42 618.50 272.1500 618.5000
  Z"
/>
<rect fill="#fffffe" x="-3.78" y="-14.31" transform="translate(327.03,609.60) rotate(0.1)" width="7.56" height="28.62" rx="3.61"/>
<path fill="#fffffe" d="
  M 397.72 614.01
  C 397.93 614.75 398.97 614.79 399.23 614.06
  L 405.77 595.77
  C 405.97 595.21 406.36 594.99 406.95 595.10
  L 410.34 595.76
  C 410.74 595.84 411.02 596.20 411.01 596.60
  C 410.98 597.95 411.17 599.67 410.73 600.91
  C 406.01 614.28 402.31 624.01 399.62 630.09
  C 397.46 634.99 389.32 635.71 385.19 632.93
  C 384.94 632.76 384.76 632.52 384.67 632.23
  C 383.75 629.43 385.34 628.64 387.80 628.87
  C 392.71 629.32 395.64 625.49 393.92 621.04
  C 391.32 614.29 388.66 607.54 385.93 600.81
  C 383.95 595.91 390.06 592.52 392.18 597.78
  C 394.39 603.24 396.23 608.65 397.72 614.01
  Z"
/>
<path fill="#1e1f1d" d="
  M 344.48 607.30
  C 344.29 607.30 344.13 607.15 344.12 606.96
  L 344.12 606.85
  C 344.04 603.27 346.59 600.31 349.82 600.23
  L 350.10 600.23
  C 353.33 600.15 356.02 603.00 356.10 606.57
  L 356.10 606.68
  C 356.10 606.88 355.95 607.04 355.76 607.04
  L 344.48 607.30
  Z"
/>
<ellipse fill="#1e1f1d" cx="0.00" cy="0.00" transform="translate(272.15,609.57) rotate(90.0)" rx="8.93" ry="6.76"/>
</svg>
